<svg width="185" height="62" viewBox="0 0 185 62" fill="none" xmlns="http://www.w3.org/2000/svg">
<path fill-rule="evenodd" clip-rule="evenodd" d="M75.6899 0.100708C68.7555 0.100708 64.7267 3.85112 64.7267 9.94687C64.7267 16.1616 68.8744 19.7931 76.0248 19.8039C78.8547 19.8039 81.177 19.2418 83.1321 18.0421L81.4578 13.1136C79.6973 14.0107 78.2066 14.3782 76.5324 14.3782C73.0113 14.3782 71.1642 12.811 71.1642 9.90364C71.1642 7.07193 72.9248 5.53718 76.338 5.53718C78.0122 5.53718 79.4056 5.90465 81.0041 6.82334L82.5379 1.89486C80.6153 0.662728 78.3795 0.100708 75.6899 0.100708ZM13.1072 19.4578C18.065 19.4578 20.4953 17.6637 20.4953 13.9998C20.4953 11.7301 19.372 10.3359 17.0497 9.70896C18.9615 9.03892 19.8797 7.7203 19.8797 5.70999C19.8797 2.16493 17.525 0.424829 12.7184 0.424829H1.08545V19.4578H13.1072ZM11.9624 7.81757H7.40419V5.40736H12.1028C13.1072 5.40736 13.6149 5.82888 13.6149 6.63949C13.6149 7.42847 13.0856 7.81757 11.9624 7.81757ZM12.4051 12.0651C13.5285 12.0651 14.0578 12.4542 14.0578 13.2432C14.0578 14.0538 13.5609 14.4753 12.5456 14.4753H7.40419V12.0651H12.4051ZM40.8235 19.4578V14.1403H29.8278V0.424829H23.509V19.4578H40.8235ZM56.4528 16.3236H49.6588L48.5355 19.4578H42.0979L49.9613 0.424829H56.4744L64.3378 19.4578H57.5653L56.4528 16.3236ZM53.072 6.33685L51.279 11.849H54.8326L53.072 6.33685ZM94.7108 12.2921L91.9677 15.059V19.4578H85.6487V0.424829H91.9677V7.69868L98.7071 0.424829H106.485L99.1615 7.81757L106.765 19.4578H99.3554L94.7108 12.2921ZM19.8256 40.4475H26.1336V21.4144H17.633L13.5825 32.0172L9.53205 21.4144H1.08545V40.4475H7.10176V28.8936L11.5195 40.4475H15.408L19.8256 28.8936V40.4475ZM42.9512 37.3131H36.1572L35.0339 40.4475H28.5963L36.4596 21.4145H42.9728L50.8361 40.4475H44.0638L42.9512 37.3131ZM39.5596 27.3157L37.7666 32.8278H41.3203L39.5596 27.3157ZM61.7888 34.2869L65.7097 40.4475H72.9466L68.5829 33.6168C70.8511 32.6981 72.0285 30.7418 72.0285 27.8561C72.0285 23.5977 69.5118 21.4145 64.6188 21.4145H53.2883V40.4475H59.6071V34.2869H61.7888ZM63.6683 29.3043H59.6179V26.3862H63.6683C65.0184 26.3862 65.6017 26.8401 65.6017 27.8453C65.6017 28.8612 65.0076 29.3043 63.6683 29.3043ZM84.6113 33.2817L81.8677 36.0486V40.4475H75.549V21.4145H81.8677V28.6883L88.6077 21.4145H96.3848L89.0614 28.8072L96.6655 40.4475H89.2558L84.6113 33.2817ZM105.447 28.7423V26.451H116.994V21.4145H99.1172V40.4367H116.994V35.4002H105.447V33.1088H115.179V28.7423H105.447ZM138.283 26.732H131.857V40.4475H125.538V26.732H119.1V21.4145H138.283V26.732ZM20.3873 61.4377V42.4046H14.371V51.4726L8.05227 42.4046H1.08545V61.4377H7.10175V50.6296L14.6518 61.4377H20.3873ZM37.1942 58.3025H30.4001L29.2768 61.4368H22.8393L30.7026 42.4038H37.2158L45.079 61.4368H38.3067L37.1942 58.3025ZM33.8026 48.305L32.0095 53.8171H35.5631L33.8026 48.305ZM56.0316 55.2762L59.9525 61.4368L67.2001 61.426L62.8364 54.5953C65.0939 53.6766 66.2712 51.7203 66.2712 48.8346C66.2712 44.587 63.7545 42.4038 58.8616 42.4038H47.531V61.4368H53.8497V55.2762H56.0316ZM57.911 50.2937H53.8605V47.3755H57.911C59.2612 47.3755 59.8444 47.8294 59.8444 48.8346C59.8444 49.8506 59.2504 50.2937 57.911 50.2937ZM82.2139 61.4368L78.2932 55.2762H76.1113V61.4368H69.7925V42.4038H81.1231C86.016 42.4038 88.5327 44.587 88.5327 48.8346C88.5327 51.7203 87.3554 53.6766 85.0871 54.5953L89.4505 61.426L82.2139 61.4368ZM76.1221 50.2937H80.1725C81.5119 50.2937 82.106 49.8506 82.106 48.8346C82.106 47.8294 81.5227 47.3755 80.1725 47.3755H76.1221V50.2937ZM98.1021 58.3025H104.896L106.009 61.4368H112.781L104.918 42.4038H98.4051L90.5417 61.4368H96.9791L98.1021 58.3025ZM99.7115 53.8171L101.505 48.305L103.266 53.8171H99.7115ZM130.593 47.7213H124.155V61.4368H117.837V47.7213H111.399V42.4038H130.593V47.7213ZM139.709 42.4038H133.39V61.4368H139.709V42.4038ZM163.537 42.4038L156.127 61.4368H149.614L142.205 42.4038H148.998L153.048 54.4116L157.077 42.4038H163.537ZM172.339 49.7318V47.4406L183.897 47.4298V42.3931H166.02V61.4262H183.886V56.3896H172.339V54.0983H182.071V49.7318H172.339Z" fill="white"/>
</svg>
