<svg width="219" height="62" viewBox="0 0 219 62" fill="none" xmlns="http://www.w3.org/2000/svg">
<g clip-path="url(#clip0_129_270)">
<path fill-rule="evenodd" clip-rule="evenodd" d="M26.1604 61.7685C25.9047 61.7764 25.6479 61.7804 25.3902 61.7804C25.1325 61.7804 24.8757 61.7764 24.6199 61.7685V47.6313C24.8742 47.6502 25.1311 47.6597 25.3902 47.6597C25.6493 47.6597 25.9061 47.6502 26.1604 47.6313V61.7685ZM21.995 47.0853C22.4758 47.2536 22.9729 47.3872 23.4832 47.483L19.8233 61.1422C19.3211 61.025 18.8248 60.8922 18.3351 60.7445L21.995 47.0853ZM19.6024 45.8746C20.0252 46.1636 20.4707 46.4219 20.9357 46.646L13.8659 58.8915C13.4126 58.648 12.968 58.3907 12.5325 58.12L19.6024 45.8746ZM17.6042 44.0869C17.9396 44.4766 18.3038 44.8408 18.6935 45.1762L8.6969 55.1727C8.32252 54.8212 7.95923 54.4579 7.60765 54.0835L17.6042 44.0869ZM16.1344 41.8447C16.3586 42.3097 16.6168 42.7553 16.9058 43.178L4.66043 50.2479C4.38974 49.8125 4.13241 49.3678 3.88898 48.9146L16.1344 41.8447ZM15.2974 39.2972C15.3932 39.8076 15.5268 40.3047 15.6951 40.7853L2.03595 44.4453C1.8882 43.9556 1.75544 43.4593 1.63819 42.9571L15.2974 39.2972ZM15.1207 37.3902C15.1207 37.6493 15.1302 37.9062 15.1491 38.1604H1.01193C1.004 37.9046 1 37.6479 1 37.3902C1 37.1325 1.004 36.8757 1.01193 36.62H15.1491C15.1302 36.8743 15.1207 37.1311 15.1207 37.3902ZM15.6951 33.995C15.5268 34.4758 15.3932 34.9728 15.2974 35.4832L1.63819 31.8232C1.75544 31.321 1.8882 30.8248 2.03595 30.3351L15.6951 33.995ZM16.9058 31.6023C16.6168 32.0252 16.3586 32.4707 16.1344 32.9357L3.88897 25.8658C4.1324 25.4126 4.38974 24.968 4.66043 24.5325L16.9058 31.6023ZM18.6935 29.6043C18.3038 29.9397 17.9396 30.3038 17.6042 30.6934L7.60765 20.6969C7.95923 20.3225 8.32251 19.9592 8.6969 19.6076L18.6935 29.6043ZM20.9357 28.1344C20.4707 28.3586 20.0252 28.6168 19.6024 28.9058L12.5325 16.6604C12.968 16.3897 13.4126 16.1324 13.8659 15.889L20.9357 28.1344ZM23.4832 27.2973C22.9728 27.3932 22.4757 27.5268 21.995 27.6951L18.335 14.036C18.8248 13.8882 19.3211 13.7554 19.8233 13.6382L23.4832 27.2973ZM24.6199 13.0119V27.1491C24.8742 27.1302 25.1311 27.1206 25.3902 27.1206C25.6493 27.1206 25.9061 27.1302 26.1604 27.1491V13.0119C25.9047 13.004 25.6479 13 25.3902 13C25.1325 13 24.8757 13.004 24.6199 13.0119ZM28.7854 27.6951C28.3046 27.5268 27.8075 27.3932 27.2972 27.2973L30.9571 13.6382C31.4593 13.7554 31.9556 13.8882 32.4453 14.036L28.7854 27.6951ZM31.178 28.9058C30.7552 28.6168 30.3097 28.3586 29.8447 28.1344L36.9145 15.889C37.3678 16.1324 37.8124 16.3897 38.2479 16.6604L31.178 28.9058ZM33.1761 30.6935C32.8407 30.3038 32.4766 29.9397 32.0869 29.6043L42.0835 19.6077C42.4579 19.9592 42.8212 20.3225 43.1727 20.6969L33.1761 30.6935ZM34.646 32.9357C34.4218 32.4707 34.1636 32.0252 33.8746 31.6023L46.12 24.5325C46.3906 24.968 46.648 25.4126 46.8914 25.8658L34.646 32.9357ZM35.4831 35.4832C35.3872 34.9728 35.2536 34.4758 35.0853 33.995L48.7444 30.3351C48.8921 30.8248 49.0249 31.321 49.1422 31.8232L35.4831 35.4832ZM35.6598 37.3902C35.6598 37.1311 35.6502 36.8743 35.6313 36.62H49.7685C49.7764 36.8757 49.7803 37.1325 49.7803 37.3902C49.7803 37.6479 49.7764 37.9046 49.7685 38.1604H35.6313C35.6502 37.9062 35.6598 37.6493 35.6598 37.3902ZM35.0853 40.7853C35.2536 40.3047 35.3872 39.8075 35.4831 39.2972L49.1422 42.9571C49.0249 43.4593 48.8921 43.9556 48.7444 44.4453L35.0853 40.7853ZM33.8746 43.178C34.1636 42.7552 34.4218 42.3097 34.646 41.8447L46.8914 48.9146C46.648 49.3678 46.3906 49.8125 46.12 50.2479L33.8746 43.178ZM32.0869 45.1762C32.4766 44.8408 32.8407 44.4766 33.1761 44.0869L43.1727 54.0835C42.8211 54.4579 42.4579 54.8212 42.0835 55.1727L32.0869 45.1762ZM29.8447 46.646C30.3097 46.4218 30.7552 46.1636 31.178 45.8746L38.2479 58.1199C37.8124 58.3906 37.3678 58.648 36.9145 58.8914L29.8447 46.646ZM27.2972 47.483C27.8075 47.3872 28.3046 47.2536 28.7854 47.0853L32.4453 60.7445C31.9556 60.8922 31.4593 61.025 30.9571 61.1422L27.2972 47.483ZM64.515 37.3902C64.515 34.6498 66.7365 32.4283 69.4769 32.4283C72.2173 32.4283 74.4389 34.6498 74.4389 37.3902C74.4389 40.1306 72.2173 42.3522 69.4769 42.3522C66.7365 42.3522 64.515 40.1306 64.515 37.3902ZM82.6695 37.3902C82.6695 44.6762 76.763 50.5828 69.4769 50.5828C62.191 50.5828 56.2844 44.6762 56.2844 37.3902C56.2844 30.1042 62.191 24.1977 69.4769 24.1977C76.763 24.1977 82.6695 30.1042 82.6695 37.3902ZM131.071 37.5173V24.6343H139.258V50.1091H131.871L123.864 37.2261V50.1091H115.676V24.6343H123.064L131.071 37.5173ZM141.183 24.6343V50.1091H149.371V24.6343H141.183ZM168.728 36.6802V36.753C171.275 37.7721 172.84 39.6281 172.84 42.5758C172.84 47.78 169.31 50.1091 162.286 50.1091H151.295V24.6343H161.304C168.327 24.6343 171.893 26.6723 171.893 31.5125C171.893 34.06 170.692 35.6976 168.728 36.6802ZM163.596 32.4587C163.596 31.1122 162.686 30.5299 160.976 30.5299H159.484V34.4239H160.976C162.686 34.4239 163.596 33.8052 163.596 32.4587ZM159.484 43.9224H160.955C162.629 43.9224 163.575 43.2673 163.575 41.9207C163.575 40.5743 162.629 39.9556 160.955 39.9556H159.484V43.9224ZM188.666 24.6343V38.9366C188.666 41.3021 187.429 42.6122 185.245 42.6122C183.025 42.6122 181.788 41.3021 181.788 38.9366V24.6343H173.635V39.81C173.635 47.3797 178.294 50.5822 185.245 50.5822C192.159 50.5822 196.854 47.3797 196.854 39.81V24.6343H188.666ZM209.006 33.8672C209.398 33.9583 209.81 34.054 210.224 34.1692C216.447 35.8797 218.886 37.6993 218.886 41.9936C218.886 46.5792 215.538 50.5823 208.623 50.5823C203.819 50.5823 198.76 48.8718 197.706 43.7769L204.474 41.6661C204.619 42.9762 206.294 43.9589 208.223 43.9589C209.642 43.9589 210.697 43.413 210.697 42.4304C210.697 41.3805 209.634 41.1465 207.835 40.7504L207.834 40.7503C207.45 40.6658 207.032 40.5738 206.585 40.4652C201.927 39.337 198.506 37.6993 198.506 32.4588C198.506 27.4731 202.909 24.1977 208.514 24.1977C212.99 24.1977 217.066 26.4176 217.976 30.894L211.243 32.5316C210.952 31.5126 209.969 30.8211 208.587 30.8211C207.131 30.8211 206.367 31.4034 206.367 32.2768C206.367 33.253 207.544 33.527 209.006 33.8672ZM98.758 35.4829L104.945 24.6379H113.752V50.1127H105.564V36.7321L98.758 48.5028L91.9531 36.728V50.1127H83.7645V24.6379H92.5713L98.758 35.4829Z" fill="white"/>
</g>
<defs>
<clipPath id="clip0_129_270">
<rect width="218.771" height="62" fill="white" transform="translate(0.114258)"/>
</clipPath>
</defs>
</svg>
