<svg width="170" height="62" viewBox="0 0 170 62" fill="none" xmlns="http://www.w3.org/2000/svg">
<mask id="mask0_129_262" style="mask-type:luminance" maskUnits="userSpaceOnUse" x="11" y="3" width="149" height="56">
<path d="M159.325 3.85583H11.4246V58.0651H159.325V3.85583Z" fill="white"/>
</mask>
<g mask="url(#mask0_129_262)">
<path fill-rule="evenodd" clip-rule="evenodd" d="M23.0385 17.5284C29.4282 17.5284 34.6076 14.4663 34.6076 10.6939C34.6076 6.91795 29.4282 3.85583 23.0385 3.85583C16.6487 3.85583 11.4693 6.91795 11.4693 10.6904C11.4693 14.4663 16.6487 17.5284 23.0385 17.5284ZM34.6628 16.5422V57.4428H11.4246V16.5422C11.4246 16.5422 15.3522 19.3319 22.973 19.3319C30.5972 19.3285 34.6628 16.5422 34.6628 16.5422ZM36.645 14.67V13.097H37.1912C37.3883 13.097 37.5301 13.1142 37.6234 13.1523C37.7859 13.2214 37.8689 13.3563 37.8689 13.5533C37.8689 13.6951 37.817 13.7988 37.7133 13.8645C37.658 13.899 37.5819 13.9232 37.4851 13.9405C37.6096 13.9578 37.6995 14.0097 37.7582 14.0926C37.817 14.1756 37.8447 14.2551 37.8447 14.3346V14.4487C37.8447 14.4868 37.8447 14.5248 37.8481 14.5663C37.8516 14.6078 37.855 14.6354 37.8619 14.6493L37.8723 14.67H37.6165C37.6165 14.6665 37.6156 14.6639 37.6148 14.6614L37.6142 14.6599C37.6142 14.6599 37.6139 14.6586 37.6137 14.6579C37.6133 14.6563 37.613 14.6546 37.613 14.6527C37.613 14.6493 37.6096 14.6423 37.6096 14.6354L37.6027 14.5836V14.4591C37.6027 14.2793 37.5543 14.1618 37.454 14.103C37.3952 14.0719 37.2915 14.0546 37.1428 14.0546H36.9216V14.67H36.645ZM37.4402 13.823C37.5473 13.7815 37.6027 13.702 37.6027 13.581C37.6027 13.4669 37.5681 13.3908 37.4989 13.3528C37.4263 13.3148 37.3157 13.294 37.1601 13.294H36.9216V13.8575H37.174C37.2915 13.8575 37.3814 13.8472 37.4402 13.823ZM38.2388 12.8757C38.5223 13.1557 38.6606 13.4911 38.6606 13.8887C38.6606 14.2828 38.5223 14.6251 38.2388 14.9085C37.9587 15.1886 37.6199 15.3303 37.2224 15.3303C36.8248 15.3303 36.486 15.1886 36.2059 14.9085C35.9259 14.6285 35.7876 14.2862 35.7876 13.8887C35.7876 13.4945 35.9294 13.1557 36.2094 12.8757C36.4894 12.5957 36.8282 12.4574 37.2224 12.4574C37.6199 12.4574 37.9587 12.5957 38.2388 12.8757ZM38.097 13.0174C37.855 12.7754 37.5646 12.6544 37.2224 12.6544C36.8801 12.6544 36.5897 12.7754 36.3477 13.0174C36.1091 13.256 35.9881 13.5464 35.9881 13.8887C35.9881 14.2309 36.1091 14.5248 36.3477 14.7668C36.5862 15.0088 36.8801 15.1298 37.2224 15.1298C37.5646 15.1298 37.855 15.0088 38.097 14.7668C38.3356 14.5248 38.4566 14.2309 38.4566 13.8887C38.4566 13.5499 38.3356 13.2594 38.097 13.0174ZM14.8176 52.0495L14.7797 52.229L14.1728 54.8323C14.1348 54.9979 14.1141 55.1012 14.1141 55.1531C14.1141 55.2737 14.1659 55.3187 14.3245 55.3463L14.2797 55.5496H12.9314H12.7521C12.4831 55.5496 12.3486 55.4532 12.3486 55.2564C12.3486 55.2049 12.3624 55.1358 12.3796 55.0635L12.4245 54.8841L13.0245 52.2805C13.0624 52.1152 13.0831 52.0115 13.0831 51.96C13.0831 51.8393 13.0314 51.7944 12.8727 51.7667L12.9176 51.5634H14.2659H14.4521C14.7142 51.5634 14.8486 51.6599 14.8486 51.8566C14.8486 51.9012 14.8417 51.9669 14.8176 52.0495ZM15.0393 51.0988C15.0285 51.1365 15.017 51.1766 15.0072 51.2253L14.9762 51.3529H13.9072H13.7245C13.4624 51.3529 13.3279 51.2634 13.3279 51.0601C13.3279 51.0151 13.3348 50.946 13.359 50.8668L13.3969 50.6874L13.4279 50.5598H14.4969H14.6831C14.9452 50.5598 15.0728 50.6566 15.0728 50.853C15.0728 50.9048 15.0659 50.9736 15.0521 51.0532C15.0481 51.068 15.0438 51.0832 15.0393 51.0988ZM21.3521 52.4184L20.79 54.8357C20.7521 55.0013 20.7314 55.1047 20.7314 55.1565C20.7314 55.2772 20.7832 55.3221 20.9418 55.3495L20.8969 55.5531H19.5418H19.3624C19.0935 55.5531 18.959 55.4566 18.959 55.2599C18.959 55.2081 18.9728 55.1393 18.99 55.067L19.028 54.8876L19.4762 52.9771C19.4839 52.9367 19.4906 52.9028 19.496 52.8751C19.5078 52.8156 19.5142 52.7832 19.5142 52.7669C19.5142 52.6701 19.4452 52.6013 19.3487 52.6013C19.228 52.6013 19.1693 52.6839 19.1176 52.9152L18.6762 54.8323C18.6383 54.9979 18.6176 55.1012 18.6176 55.1531C18.6176 55.2737 18.6693 55.3187 18.828 55.346L18.7831 55.5496H17.4245H17.2452C16.9762 55.5496 16.8417 55.4532 16.8417 55.2564C16.8417 55.2049 16.8555 55.1358 16.8728 55.0635L16.9176 54.8841L17.3521 52.9909C17.3831 52.8703 17.3969 52.8046 17.3969 52.7669C17.3969 52.6701 17.3279 52.6013 17.2314 52.6013C17.1038 52.6013 17.0521 52.6839 16.9935 52.9322L16.5521 54.8323C16.5141 54.9979 16.5004 55.1012 16.5004 55.1531C16.5004 55.2737 16.5452 55.3187 16.7107 55.346L16.659 55.5496H15.3107H15.1314C14.8624 55.5496 14.7348 55.4532 14.7348 55.2564C14.7348 55.2049 14.7417 55.1358 14.7555 55.0635L14.8003 54.8841L15.4003 52.2805C15.4383 52.1152 15.4589 52.0115 15.4589 51.96C15.4589 51.8393 15.4072 51.7944 15.2486 51.7667L15.2934 51.5634H16.6417H16.8279C17.09 51.5634 17.2245 51.6599 17.2245 51.8566C17.2245 51.9012 17.2176 51.9704 17.2003 52.0357L17.1624 52.1702L17.5004 51.7425C17.621 51.5842 17.6659 51.5634 17.89 51.5634H18.5935C19.1314 51.5634 19.3107 51.6668 19.3107 51.9977C19.3107 52.0426 19.3038 52.0945 19.2866 52.1702L19.6004 51.7425C19.7038 51.6011 19.7866 51.5634 20.0211 51.5634H20.6935C21.2383 51.5634 21.4211 51.6668 21.4211 51.9977C21.4211 52.0737 21.3901 52.229 21.3521 52.4184ZM25.0246 54.8357L25.535 52.6635C25.5626 52.5221 25.5798 52.3876 25.5867 52.2635C25.5867 51.8151 25.2626 51.5531 24.7246 51.5531H22.4418L22.3211 52.0634C22.3073 52.1187 22.3005 52.1702 22.3005 52.222C22.3005 52.4599 22.4004 52.536 22.7211 52.536H23.5212C23.7281 52.536 23.797 52.5806 23.797 52.7012C23.797 52.853 23.697 52.9118 23.4591 52.9118H22.8212C21.797 52.9118 21.2418 53.6153 21.2418 54.9187C21.2418 55.3463 21.5177 55.6015 21.997 55.6015H22.3281C22.635 55.6015 22.8142 55.522 22.9729 55.3187L23.2867 54.9221L23.2487 55.0808C23.2315 55.1462 23.2177 55.2084 23.2177 55.2599C23.2177 55.4566 23.3522 55.5531 23.6212 55.5531H23.8005H25.1315L25.1833 55.3498C25.0177 55.3221 24.9729 55.2772 24.9729 55.1565C24.9729 55.1047 24.9867 55.0013 25.0246 54.8357ZM23.1384 53.8705C23.1729 53.7221 23.2418 53.653 23.3763 53.653H23.5729L23.3798 54.4772H23.2212C23.1177 54.4772 23.0487 54.4257 23.0487 54.3116C23.0487 54.2808 23.0556 54.2082 23.0798 54.1394L23.1384 53.8705ZM29.8006 52.2943L29.2248 54.7704C29.0075 55.7394 28.9179 55.9462 28.642 56.2048C28.373 56.4461 27.9799 56.5564 27.4041 56.5564H26.2316C25.5247 56.5564 25.2764 56.4184 25.2764 56.0115C25.2764 55.9081 25.2902 55.8048 25.3212 55.6876L25.4592 55.0635H25.6557C25.7006 55.253 25.873 55.336 26.2316 55.336H26.7489C27.2454 55.336 27.4489 55.198 27.5489 54.7565L27.6213 54.4046L27.4247 54.6635C27.2213 54.9291 27.0247 54.9944 26.5213 54.9944C25.873 54.9944 25.6454 54.8322 25.6454 54.3773C25.6454 53.922 25.8489 53.0186 26.0902 52.4599C26.3971 51.7252 26.7006 51.5634 27.7937 51.5634H29.2592C29.6386 51.5634 29.8282 51.7118 29.8282 52.0046C29.8282 52.0876 29.8213 52.184 29.8006 52.2943ZM27.9178 52.5048C27.7661 52.5048 27.6902 52.5771 27.642 52.7977L27.4523 53.6357C27.4454 53.6668 27.4454 53.7014 27.4454 53.7325C27.4454 53.829 27.5109 53.8874 27.6213 53.8874H27.7454L28.0592 52.5048H27.9178ZM32.8006 53.7083C33.2351 53.7083 33.3454 53.6737 33.4695 53.4908C33.6075 53.2703 33.7385 52.7392 33.7385 52.3911C33.7385 51.8117 33.3834 51.5704 32.5454 51.5704H32.0074C30.7454 51.5704 30.304 51.9116 29.9902 53.0978C29.8074 53.7806 29.6626 54.5325 29.6626 54.7496C29.6626 55.3394 30.0419 55.5496 31.1178 55.5496H32.0144C32.8075 55.5496 33.0316 55.4186 33.1558 54.8807L33.3316 54.1083H33.1488C32.9834 54.3358 32.9006 54.3635 32.4144 54.3635H32.0212C31.6592 54.3635 31.4764 54.2704 31.4764 54.0806C31.4764 54.0278 31.4877 53.969 31.5 53.9047L31.504 53.8839L31.5419 53.7083H32.8006ZM31.7626 52.7704C31.804 52.5806 31.8626 52.5221 31.9799 52.5221C32.0799 52.5221 32.1385 52.5806 32.1419 52.6839C32.1419 52.7047 32.1351 52.7427 32.1281 52.7704L32.0695 53.0255H31.704L31.7626 52.7704ZM127.103 12.5681C124.13 12.5681 121.987 13.3978 120.673 15.0918C119.359 16.7513 118.702 19.0677 118.702 21.9717C118.702 23.3891 118.875 24.6684 119.186 25.8092C119.497 26.9501 120.016 27.9527 120.673 28.7824C121.33 29.6121 122.159 30.269 123.127 30.7185C124.095 31.1679 125.236 31.4099 126.55 31.4099C127.242 31.4099 127.864 31.4099 128.382 31.3753C128.901 31.3408 129.316 31.3062 129.696 31.2025V20.1394H136.057V35.4203C135.297 35.7315 134.087 36.0426 132.393 36.3883C130.699 36.734 128.624 36.9069 126.135 36.9069C124.026 36.9069 122.09 36.5612 120.362 35.9043C118.633 35.2474 117.146 34.2794 115.936 33.0002C114.726 31.7211 113.758 30.1653 113.101 28.2984C112.445 26.4315 112.099 24.3226 112.099 21.9371C112.099 19.5171 112.479 17.4082 113.205 15.5413C113.931 13.6743 114.934 12.1186 116.213 10.8395C117.492 9.56025 119.013 8.59223 120.742 7.90079C122.471 7.24393 124.303 6.89821 126.274 6.89821C127.622 6.89821 128.797 7.00193 129.904 7.17479C130.975 7.34763 131.909 7.55506 132.669 7.79707C133.43 8.03908 134.087 8.28108 134.605 8.52309C135.124 8.76509 135.47 8.97253 135.677 9.11081L133.845 14.2967C132.981 13.8127 131.978 13.4324 130.837 13.0867C129.662 12.7409 128.452 12.5681 127.103 12.5681ZM43.3693 36.1809H49.3503V7.31306H43.3693V36.1809ZM80.811 7.31306H75.5906L67.8464 18.0305L60.1368 7.31306H54.9164V36.1809H60.8974V18.1342L67.397 27.1921H68.3305L74.83 18.1342V36.1809H80.811V7.31306ZM111.995 36.1809H105.53L103.56 30.4765H92.8076L91.0098 36.1809H84.6485L94.3633 7.31306H101.312L111.995 36.1809ZM97.9243 14.1929L94.3979 25.3943H101.796L97.9243 14.1929ZM141.001 36.1809H158.737V30.8913H146.982V25.3598H155.833V20.0702H146.982V12.6026H158.495V7.31306H141.001V36.1809ZM60.2405 56.3019C57.5439 57.5465 55.5387 58.0651 52.6692 58.0651C45.2016 58.0651 41.4678 53.6399 41.4678 49.1109C41.4678 44.4091 45.6856 40.053 53.0495 40.053C55.7462 40.053 58.1316 40.5715 60.0331 41.6087V45.5154C57.9242 44.4436 55.7807 43.7176 53.3952 43.7176C49.3157 43.7176 46.4117 45.9302 46.4117 49.0417C46.4117 52.1878 49.2466 54.435 53.257 54.435C55.7807 54.435 57.4748 53.709 60.2405 52.499V56.3019ZM62.868 49.0072C62.868 53.5016 66.8438 58.0305 73.8966 58.0305C80.811 58.0305 84.8905 53.5361 84.8905 49.0072C84.8905 44.7548 81.1567 39.9838 73.8966 39.9838C66.6364 39.9838 62.868 44.7548 62.868 49.0072ZM67.8119 49.0417C67.8119 45.8265 70.2319 43.683 73.8966 43.683C77.5267 43.683 79.9467 45.8265 79.9467 49.0417C79.9467 52.257 77.5267 54.4004 73.8966 54.4004C70.2319 54.4004 67.8119 52.257 67.8119 49.0417ZM104.493 40.2604H108.676V57.8231H103.871V46.8637L98.6849 52.3607H97.9589L92.773 46.8637V57.8231H87.9675V40.2604H92.1507L98.3391 46.76L104.493 40.2604ZM113.482 57.8231H118.287V40.2604H113.482V57.8231ZM141.036 56.3019C138.339 57.5465 136.334 58.0651 133.465 58.0651C125.997 58.0651 122.263 53.6399 122.263 49.1109C122.263 44.4091 126.481 40.053 133.845 40.053C136.541 40.053 138.927 40.5715 140.828 41.6087V45.5154C138.72 44.4436 136.576 43.7176 134.191 43.7176C130.111 43.7176 127.207 45.9302 127.207 49.0417C127.207 52.1878 130.042 54.435 134.052 54.435C136.576 54.435 138.27 53.709 141.036 52.499V56.3019ZM152.376 43.2682C154 43.2682 155.66 43.683 158.46 44.8239V41.4359C156.006 40.5024 154.07 40.0875 151.926 40.0875C147.466 40.0875 144.597 42.0927 144.597 45.1351C144.597 48.891 148.083 50.0354 150.893 50.9581C152.791 51.5811 154.381 52.1028 154.381 53.2596C154.381 54.2967 153.378 54.8845 151.546 54.8845C149.437 54.8845 147.743 54.2622 144.977 52.6027V56.3711L145.066 56.4125C146.965 57.2941 148.624 58.0651 151.926 58.0651C156.213 58.0651 159.325 56.1291 159.325 52.741C159.325 49.0538 155.772 47.8646 152.948 46.919C151.086 46.2957 149.541 45.7781 149.541 44.7202C149.541 43.8213 150.647 43.2682 152.376 43.2682Z" fill="white"/>
</g>
</svg>
