<svg width="124" height="62" viewBox="0 0 124 62" fill="none" xmlns="http://www.w3.org/2000/svg">
<g clip-path="url(#clip0_129_268)">
<path fill-rule="evenodd" clip-rule="evenodd" d="M46.7181 25.1982V24.1788L46.6537 24.2305C46.6537 24.1144 46.6565 23.9982 46.6594 23.8821C46.6651 23.6499 46.6708 23.4176 46.6537 23.1853C46.6275 22.6714 46.5896 22.1515 46.5519 21.6337L46.5518 21.6323C46.5337 21.3837 46.5157 21.1354 46.4989 20.8886C46.4989 20.8327 46.5004 20.7768 46.5017 20.7209C46.5046 20.6091 46.5075 20.4972 46.4989 20.3854C46.486 20.1274 46.4473 19.8822 46.4087 19.637L46.4021 19.6115C46.3917 19.5717 46.3828 19.5378 46.3828 19.4951C46.3699 19.1274 46.3539 18.7628 46.3377 18.3983C46.3216 18.0339 46.3055 17.6694 46.2926 17.3016C46.2896 17.2016 46.2894 17.1022 46.2892 17.0034C46.2886 16.6819 46.2881 16.3658 46.1894 16.05C46.1617 15.9574 46.1671 15.8582 46.1724 15.7618C46.1745 15.7239 46.1765 15.6865 46.1765 15.65C46.1765 14.7984 46.125 13.9468 46.0218 13.0952C46.0106 13.0127 46.0037 12.9281 45.9967 12.8425C45.9797 12.6336 45.9623 12.4192 45.88 12.2179L45.8571 12.1576C45.7613 11.9051 45.6622 11.644 45.5189 11.405C45.0805 10.6953 44.2423 10.6178 43.6491 11.1856C43.417 11.405 43.2624 11.663 43.1721 11.9727C43.056 12.3597 42.94 12.7469 42.9141 13.1597C42.8932 13.612 42.8379 14.0728 42.7832 14.5282C42.7708 14.6315 42.7585 14.7345 42.7466 14.8371C42.7208 15.0565 42.6853 15.2758 42.6498 15.4952C42.6143 15.7146 42.5789 15.9339 42.5531 16.1532C42.5209 16.3791 42.5015 16.6048 42.4822 16.8307C42.4628 17.0564 42.4435 17.2822 42.4113 17.5081C42.3629 17.9337 42.2928 18.3595 42.2227 18.7853C42.1993 18.9273 42.1759 19.0693 42.1534 19.2112C42.1405 19.3059 42.129 19.4005 42.1176 19.4951C42.0946 19.6844 42.0717 19.8736 42.0373 20.0628L42.0089 20.2384L42.0088 20.2393C41.9407 20.6604 41.8715 21.0892 41.7923 21.5079C41.7149 21.9338 41.6376 22.3724 41.5603 22.8112C41.528 22.9854 41.4989 23.1627 41.47 23.3401C41.4409 23.5176 41.412 23.695 41.3797 23.8692C41.355 24.0052 41.331 24.1411 41.3071 24.2769C41.2311 24.7081 41.1554 25.1375 41.0573 25.5595C41.0321 25.6634 41.0079 25.7677 40.9837 25.8718C40.8213 26.5686 40.6601 27.2613 40.2449 27.8562C39.7808 28.5272 39.2005 29.0691 38.2979 29.0304C38.0528 29.0175 37.8078 28.9272 37.5758 28.8368C36.6215 28.4626 36.0026 27.7401 35.5771 26.8498C35.2762 26.2132 34.9982 25.5653 34.7203 24.9172C34.5813 24.5932 34.4423 24.2692 34.3005 23.9466C34.0554 23.3918 33.8104 22.8241 33.5784 22.2563C33.396 21.8003 33.2218 21.3364 33.0491 20.8769C33.002 20.7513 32.9548 20.6261 32.9079 20.5016C32.794 20.2026 32.6785 19.9055 32.5631 19.6089C32.3648 19.0986 32.1669 18.5898 31.9794 18.0758L31.8441 17.7079C31.3866 16.4648 30.9319 15.2294 30.5094 13.9726C30.2902 13.3404 30.0871 12.7049 29.884 12.0695C29.6811 11.4341 29.4778 10.7984 29.2586 10.1663C29.1455 9.83612 28.9772 9.52672 28.8093 9.21773C28.7475 9.1041 28.6857 8.99054 28.6268 8.87597C28.4721 8.57922 28.2141 8.41146 27.9304 8.26953C27.3244 7.97277 26.6797 8.21792 26.3702 8.81142C26.1639 9.21145 26.0736 9.63721 26.0736 10.0889C26.0736 10.7598 26.1252 11.4179 26.2283 12.0888C26.2705 12.3351 26.2897 12.5814 26.3089 12.8278C26.3249 13.033 26.3409 13.2383 26.3702 13.4436C26.4089 13.7469 26.454 14.0469 26.4991 14.3468C26.5442 14.6466 26.5895 14.947 26.6281 15.25C26.6474 15.4306 26.6667 15.6081 26.6861 15.7855C26.7055 15.9628 26.7248 16.1404 26.7441 16.321C26.7828 16.7209 26.8344 17.1339 26.886 17.5339C26.8989 17.6113 26.9053 17.6887 26.9118 17.7661C26.9182 17.8435 26.9247 17.9209 26.9376 17.9984C26.9668 18.2133 26.9813 18.4281 26.9958 18.6417C27.0194 18.9922 27.0428 19.3389 27.131 19.6758C27.1568 19.7144 27.1568 19.7402 27.1568 19.779C27.1696 19.9424 27.1768 20.1073 27.184 20.2722C27.1983 20.6019 27.2126 20.9317 27.2728 21.2499C27.3037 21.4357 27.3099 21.6215 27.3161 21.8073C27.3254 22.086 27.3347 22.3647 27.4276 22.6435C27.5308 22.9402 27.5308 23.2757 27.5308 23.5983C27.5436 24.1659 27.5823 24.7208 27.6468 25.2886C27.7112 25.8562 27.5694 26.424 27.3502 26.9659C26.9891 27.8562 25.7513 27.9466 25.1452 27.4046C24.6551 26.9659 24.3586 26.4498 24.2425 25.8046C24.191 25.4563 24.1652 25.1208 24.1394 24.7724C24.1101 24.3327 24.0586 23.9004 24.0074 23.47C23.9909 23.332 23.9745 23.1941 23.9589 23.0563C23.9331 22.9144 23.9331 22.7854 23.9331 22.6564C23.9253 22.4057 23.9211 22.1563 23.9169 21.9076C23.9069 21.3241 23.897 20.7451 23.8428 20.1661C23.8279 19.9727 23.8226 19.7774 23.8173 19.5824C23.8087 19.27 23.8002 18.9583 23.7526 18.6564C23.6876 18.3027 23.6792 17.9529 23.6708 17.605C23.6642 17.3311 23.6577 17.0583 23.6236 16.7855C23.5699 16.3877 23.5609 15.9897 23.552 15.5919C23.5502 15.5123 23.5484 15.4329 23.5462 15.3533C23.5383 15.1708 23.5352 14.9885 23.5322 14.8065C23.5253 14.3962 23.5185 13.9877 23.456 13.5855C23.3852 13.1895 23.3805 12.7934 23.3757 12.3994C23.3717 12.0747 23.3678 11.7514 23.327 11.4308C23.2631 10.9514 23.2635 10.4722 23.2639 9.99596C23.2641 9.70295 23.2644 9.41112 23.2496 9.12117C23.2393 8.92498 23.2207 8.72887 23.2022 8.53276C23.1744 8.23857 23.1465 7.94438 23.1465 7.65019C23.1465 7.43723 23.1412 7.22427 23.1358 7.01143C23.1163 6.2314 23.0968 5.45287 23.3399 4.68251C23.6107 3.81801 24.5005 3.26319 25.1838 3.3148C25.3257 3.32125 25.4707 3.31803 25.6158 3.3148C25.7609 3.31157 25.9059 3.30834 26.0479 3.3148C26.9891 3.35351 27.8789 3.54705 28.6654 4.10188C29.207 4.48897 29.5939 4.99218 29.8647 5.57281C30.2257 6.34693 30.5222 7.14686 30.8188 7.94678C30.9391 8.27488 31.057 8.60317 31.1746 8.93024C31.3344 9.37503 31.4936 9.81795 31.6571 10.2566C31.8053 10.6565 31.9599 11.0531 32.1147 11.4498C32.2694 11.8466 32.4243 12.2437 32.5725 12.6436C33.0883 13.9984 33.5912 15.3533 34.0684 16.7338C34.2468 17.2694 34.3997 17.8152 34.5527 18.3615C34.643 18.6839 34.7335 19.0066 34.8292 19.3274C34.9125 19.6013 34.995 19.8759 35.0778 20.1508L35.0783 20.1524L35.079 20.155L35.0794 20.1561C35.3546 21.0709 35.6313 21.9903 35.9381 22.9015C36.1702 23.5595 36.5441 24.1402 37.176 24.5014C37.7304 24.824 38.4268 24.7337 38.9039 24.2821C39.2521 23.9596 39.4197 23.5595 39.5357 23.1209C39.6905 22.5402 39.7679 21.9338 39.7808 21.3144C39.7842 21.1586 39.7831 21.001 39.782 20.8429C39.779 20.3987 39.7759 19.9489 39.871 19.5209C39.9296 19.2514 39.9349 18.9818 39.9403 18.7147C39.9466 18.3936 39.953 18.076 40.0515 17.7661C40.0793 17.6827 40.0739 17.5927 40.0685 17.5055C40.0665 17.4715 40.0644 17.4374 40.0644 17.4048C40.076 17.2318 40.0978 17.0691 40.1207 16.8982L40.1289 16.8371C40.1554 16.6648 40.1751 16.4891 40.195 16.3117C40.2137 16.1438 40.2328 15.9743 40.2578 15.8049C40.3029 15.5083 40.3513 15.2149 40.3996 14.9215C40.448 14.628 40.4964 14.3339 40.5415 14.0372C40.5609 13.9017 40.577 13.7629 40.5931 13.6242C40.6092 13.4855 40.6253 13.3469 40.6447 13.2114C40.6698 13.002 40.7058 12.798 40.742 12.5925C40.7616 12.4817 40.7813 12.3695 40.7994 12.2566C40.841 11.9724 40.8862 11.692 40.9312 11.4132C40.97 11.1732 41.0086 10.934 41.0445 10.6953C41.0594 10.5853 41.0705 10.4773 41.0815 10.3704C41.0989 10.2015 41.116 10.0355 41.1476 9.8695C41.1931 9.64519 41.2377 9.42004 41.2824 9.19438L41.2825 9.19344L41.2827 9.19251L41.2829 9.19166C41.4025 8.58737 41.5227 7.97981 41.6634 7.37923C41.7923 6.7857 42.1147 6.29538 42.6176 5.947C42.7852 5.83088 42.9658 5.71475 43.1592 5.66314C43.6879 5.53411 44.1908 5.43089 44.7581 5.54701C44.9385 5.58866 45.1222 5.62035 45.3068 5.65221C45.637 5.70916 45.9701 5.76664 46.2926 5.88248C47.1566 6.19216 47.711 6.8115 48.0463 7.63729C48.2784 8.23082 48.4073 8.85015 48.4332 9.49529C48.4505 9.84232 48.5028 10.1951 48.5548 10.546C48.5801 10.7169 48.6054 10.8876 48.6266 11.0566V11.134C48.6419 11.3598 48.6532 11.5836 48.6645 11.807C48.6816 12.145 48.6987 12.4825 48.7297 12.8243C48.7528 13.1315 48.7895 13.4342 48.8263 13.7377C48.8513 13.9439 48.8765 14.1511 48.8973 14.3597C48.8973 14.3791 48.9005 14.3952 48.9038 14.4113C48.907 14.4274 48.9102 14.4436 48.9102 14.4629C48.9296 14.7464 48.9456 15.0266 48.9618 15.3068V15.3081C48.9779 15.5887 48.9941 15.8694 49.0134 16.1532C49.0134 16.2412 49.0254 16.3232 49.0371 16.4033C49.0425 16.4407 49.048 16.4776 49.0521 16.5145C49.0778 16.6819 49.1035 16.8622 49.1293 17.0426L49.1294 17.0436C49.181 17.3597 49.1939 17.6758 49.2068 17.9919C49.2197 18.308 49.2326 18.6242 49.2842 18.9403C49.3504 19.3129 49.3688 19.691 49.3871 20.0674C49.3974 20.2773 49.4076 20.4872 49.426 20.695C49.4515 20.9693 49.477 21.2404 49.5025 21.5114L49.5034 21.5209C49.5292 21.7951 49.5549 22.0692 49.5808 22.3466C49.5962 22.4163 49.5977 22.4904 49.5994 22.5637C49.6004 22.6126 49.6014 22.6615 49.6066 22.7079C49.6323 22.9789 49.6581 23.237 49.6968 23.495L49.7024 23.5225C49.7132 23.5748 49.7226 23.6205 49.7226 23.6756C49.7613 24.6821 49.8 25.7014 49.8258 26.7079V27.2111C49.8515 27.8691 49.5937 28.4369 49.2326 28.9529C48.8199 29.5465 48.0205 29.5078 47.5305 28.9272C47.105 28.424 46.9503 27.8304 46.8471 27.2111C46.7955 26.8885 46.7826 26.566 46.7697 26.2434C46.7439 25.8951 46.7181 25.5466 46.7181 25.1982ZM46.9503 31.7916C47.5562 31.9464 48.1752 32.0497 48.8329 31.9981L48.8199 31.9852C49.4647 32.0497 50.0836 31.9335 50.6768 31.6239C51.1926 31.3529 51.5407 30.94 51.7858 30.4368C51.9019 30.1917 51.9663 29.9207 51.9019 29.6368C51.8567 29.4561 51.8051 29.2787 51.7536 29.1014C51.7019 28.924 51.6504 28.7465 51.6053 28.5659L51.5734 28.4428C51.4811 28.0863 51.3909 27.7375 51.3215 27.3788C51.299 27.2492 51.2937 27.1171 51.2885 26.9858C51.2816 26.8165 51.2749 26.6484 51.2313 26.4885C51.1329 26.1275 51.1313 25.7598 51.1297 25.3939C51.1281 25.0406 51.1265 24.6889 51.0378 24.3466C51.0664 23.3388 50.9968 22.3311 50.9273 21.3233C50.9025 20.9633 50.8777 20.6034 50.8574 20.2435C50.8287 19.8196 50.8204 19.3957 50.8122 18.9729C50.8018 18.4435 50.7915 17.9156 50.7413 17.3919C50.7284 17.2564 50.7188 17.1177 50.7091 16.979C50.6994 16.8403 50.6897 16.7016 50.6768 16.5661C50.6716 16.4723 50.6622 16.3807 50.6529 16.2894C50.639 16.1546 50.6252 16.0207 50.6252 15.8823C50.6055 15.4228 50.5892 14.96 50.5728 14.4956L50.5728 14.4947C50.557 14.0464 50.5411 13.5966 50.5221 13.1468V13.1081C50.4298 12.7319 50.4235 12.3518 50.4171 11.9699C50.4119 11.6576 50.4066 11.3442 50.3545 11.0308C50.2594 10.4699 50.2624 9.90203 50.2654 9.33231C50.2665 9.12873 50.2676 8.92489 50.2642 8.72114C50.2642 8.59858 50.2803 8.47276 50.2964 8.34695C50.3125 8.22117 50.3287 8.09531 50.3287 7.97277C50.3416 7.54697 50.3416 7.12117 50.2642 6.68247C50.2363 6.53142 50.2228 6.37309 50.2093 6.21274C50.1915 6.0033 50.1735 5.79032 50.1224 5.58572C49.8644 4.6051 49.2971 3.86962 48.3815 3.41803C47.7368 3.10835 47.0405 2.96642 46.3313 2.90191C45.9444 2.86319 45.5576 2.82449 45.1837 2.77288C45.0375 2.75137 44.8914 2.7227 44.7452 2.69403C44.4529 2.63668 44.1607 2.57933 43.8684 2.57933C43.6596 2.57933 43.4508 2.56015 43.2415 2.54091C42.8561 2.5055 42.4688 2.46991 42.076 2.55352C41.47 2.68255 40.9025 2.86319 40.4384 3.3019C39.8968 3.80511 39.5873 4.43736 39.4197 5.14702C39.3501 5.43449 39.3039 5.72786 39.2575 6.02313C39.2352 6.16518 39.2127 6.30773 39.1876 6.45022C39.1682 6.5728 39.1521 6.6986 39.136 6.8244C39.1199 6.95021 39.1038 7.07601 39.0844 7.19859C39.0509 7.39031 39.0156 7.58024 38.9805 7.76905L38.9803 7.77028C38.9209 8.08936 38.8622 8.40525 38.8137 8.72114C38.7556 9.07598 38.7072 9.43074 38.6589 9.78559C38.6106 10.1404 38.5622 10.4953 38.5042 10.8501C38.4523 11.1615 38.3902 11.4702 38.328 11.7787C38.2511 12.1606 38.1744 12.542 38.1173 12.9275C38.0142 13.6113 37.8981 14.2952 37.7304 14.9662C37.666 15.2371 37.5629 15.4952 37.3952 15.7146C37.1373 16.0758 36.686 16.1403 36.3636 15.8436C36.2347 15.7146 36.1186 15.5726 36.0155 15.4306C35.6881 14.9586 35.4902 14.429 35.2928 13.9009C35.2258 13.7217 35.1589 13.5427 35.087 13.3662C34.7618 12.5789 34.4708 11.783 34.1791 10.9856L34.1783 10.9836C34.1118 10.8015 34.0452 10.6194 33.9781 10.4373C33.7653 9.85659 33.5493 9.276 33.3334 8.69532L33.3328 8.69379C33.117 8.11365 32.9011 7.53354 32.6886 6.95343C32.5186 6.48955 32.3713 6.01538 32.2236 5.53995C32.0015 4.82534 31.7784 4.10752 31.4765 3.41803C31.0123 2.34708 30.2644 1.5729 29.1555 1.18581C28.4462 0.940658 27.6983 0.811626 26.9376 0.798723C26.9088 0.798723 26.8805 0.799255 26.8527 0.799778C26.7434 0.801835 26.6406 0.803768 26.5378 0.772917C26.2154 0.682596 25.8931 0.682596 25.5707 0.682596C25.5192 0.682596 25.4675 0.685464 25.416 0.688331C25.3129 0.694065 25.2097 0.6998 25.1065 0.682596C24.3586 0.566469 23.5978 0.579373 22.8499 0.695499C22.4115 0.760014 22.0246 0.953559 21.6765 1.22452C20.9415 1.80515 20.632 2.60514 20.632 3.50834C20.6234 4.75503 20.6262 6.00745 20.6291 7.26178V7.26284V7.26422V7.26562V7.26701C20.6306 7.8931 20.632 8.52036 20.632 9.1469C20.632 9.4738 20.655 9.80071 20.6779 10.1275C20.6894 10.291 20.7008 10.4544 20.7094 10.6178C20.7223 10.834 20.736 11.0501 20.7497 11.2663C20.7908 11.9146 20.8319 12.563 20.8512 13.2114C20.877 14.1122 20.8912 15.0187 20.9056 15.9233C20.9127 16.3792 20.9199 16.8347 20.9286 17.2887C20.9286 17.3064 20.9271 17.3241 20.9256 17.3413C20.9227 17.3742 20.9201 17.4052 20.9286 17.4306C21.0598 17.7944 21.0488 18.1739 21.0378 18.5507C21.0348 18.6551 21.0317 18.7593 21.0317 18.8629C21.0363 19.0226 21.0312 19.1822 21.0261 19.3413C21.0168 19.6322 21.0075 19.9212 21.0575 20.2047C21.1132 20.5332 21.116 20.8663 21.1189 21.1991C21.1226 21.6379 21.1263 22.0759 21.251 22.5014C21.2573 22.7877 21.2644 23.0747 21.2716 23.362V23.3629C21.2935 24.2411 21.3155 25.1235 21.3155 25.9982C21.3283 26.6176 21.3928 27.224 21.5476 27.8175C21.7539 28.682 22.2439 29.34 22.9789 29.8174C23.5978 30.2046 24.307 30.3465 25.0291 30.4239C25.1129 30.4303 25.1968 30.4335 25.2806 30.4368C25.3644 30.44 25.4482 30.4432 25.5321 30.4497C25.6481 30.4626 25.7673 30.4787 25.8867 30.4949C26.0059 30.511 26.1252 30.5271 26.2412 30.54C26.2964 30.5456 26.3539 30.544 26.4119 30.5424C26.4892 30.5403 26.5672 30.5382 26.641 30.553C27.2599 30.6561 27.866 30.6174 28.4721 30.4884C29.1426 30.3465 29.6584 29.9852 30.0452 29.4175C30.4489 28.8172 30.5018 28.1344 30.5547 27.452C30.5609 27.3717 30.5671 27.2912 30.5739 27.2111C30.5739 27.2088 30.5734 27.2061 30.5727 27.203C30.5719 27.1989 30.5705 27.1943 30.5691 27.1893C30.5678 27.185 30.5664 27.18 30.5651 27.1751L30.5635 27.1682C30.562 27.1611 30.5609 27.1538 30.5609 27.1465C30.4504 26.8701 30.4536 26.5842 30.4567 26.2969C30.4573 26.249 30.4578 26.201 30.4578 26.153C30.4532 26.0731 30.4553 25.9932 30.4574 25.9138C30.4611 25.7756 30.4648 25.6391 30.432 25.5079C30.3212 25.1044 30.3757 24.701 30.4295 24.3037C30.4445 24.1928 30.4595 24.0823 30.4707 23.9725C30.4837 23.766 30.5997 23.5983 30.806 23.5337C30.9994 23.4692 31.1413 23.5724 31.2831 23.7014C31.541 23.9466 31.7473 24.2176 31.902 24.5401C32.0296 24.7954 32.1497 25.0582 32.2681 25.3171C32.3052 25.3984 32.3421 25.4793 32.3792 25.5595L33.2689 27.6111C33.3154 27.7175 33.3609 27.8243 33.4064 27.931C33.6643 28.5352 33.9207 29.1362 34.3262 29.6626C34.6873 30.1271 35.087 30.5271 35.6157 30.7981C36.4023 31.1981 37.2534 31.3787 38.1431 31.4046C38.272 31.4046 38.3977 31.411 38.5235 31.4175C38.6492 31.4238 38.7749 31.4303 38.9039 31.4303C39.7808 31.469 40.6189 31.34 41.3281 30.7852C41.4829 30.6561 41.6376 30.5013 41.7536 30.3465C42.0631 29.9335 42.2953 29.4691 42.45 28.9658C42.6146 28.4633 42.7687 27.9555 42.9225 27.4491L42.923 27.4474C43.0098 27.1614 43.0966 26.8756 43.185 26.5917C43.2881 26.2563 43.4558 25.9723 43.7265 25.7531C43.9071 25.5982 44.1005 25.5982 44.2681 25.766C44.3326 25.8304 44.3971 25.9079 44.4358 25.9982C44.655 26.424 44.7839 26.8756 44.7839 27.353C44.7839 27.4508 44.7819 27.5493 44.7798 27.6478C44.7715 28.0431 44.7632 28.4418 44.8871 28.8239C44.8955 28.8832 44.8929 28.9424 44.8901 29.0053C44.8885 29.0382 44.8871 29.0724 44.8871 29.1078C44.9128 30.3336 45.6866 31.469 46.9503 31.7916ZM114.08 44.6945C113.152 45.0042 112.198 45.1203 111.27 45.0945L111.231 45.1203H110.496C109.658 45.1591 108.807 44.3333 108.832 43.5075C108.845 43.43 108.832 43.3397 108.807 43.2623C108.678 42.8881 108.729 42.5139 108.807 42.1268C108.817 42.0788 108.827 42.0308 108.838 41.9828V41.9819C108.904 41.682 108.968 41.3835 109.09 41.0946C109.322 40.5655 109.735 40.2817 110.225 40.101C110.689 39.9333 111.166 39.8301 111.669 39.8301C111.823 39.8301 111.979 39.8043 112.133 39.7785C112.701 39.6882 113.268 39.6624 113.823 39.7914C113.891 39.8056 113.96 39.8193 114.029 39.833L114.03 39.8332C114.275 39.8813 114.523 39.9304 114.764 40.0108C115.408 40.2172 115.859 40.6559 116.105 41.2752C116.337 41.8688 116.299 42.4752 116.028 43.0558C115.64 43.9074 114.945 44.3977 114.08 44.6945ZM101.095 41.0172V48.9783L101.134 48.9912V49.0944C101.134 49.6024 101.131 50.1089 101.128 50.6151C101.123 51.6258 101.117 52.6346 101.134 53.6491C101.143 54.1561 101.134 54.6644 101.126 55.1732V55.1742C101.109 56.1933 101.091 57.2145 101.211 58.2297C101.263 58.6426 101.34 59.0426 101.508 59.4168C101.882 60.2684 102.514 60.8361 103.43 61.0554C104.035 61.1973 104.642 61.2361 105.274 61.1587C105.892 61.0812 106.446 60.9264 106.988 60.6426C107.749 60.2425 108.213 59.5845 108.459 58.7716C108.654 58.1274 108.685 57.473 108.717 56.8083C108.721 56.7274 108.725 56.6464 108.729 56.5652C108.753 56.1182 108.743 55.6711 108.733 55.224C108.717 54.4712 108.7 53.7182 108.845 52.9653C108.987 52.204 109.412 51.6621 110.121 51.3912C110.689 51.1718 111.282 51.0944 111.888 51.0815C112.404 51.0686 112.92 51.1073 113.423 51.2105C114.222 51.3782 114.918 51.7395 115.383 52.4491C115.705 52.9524 115.873 53.5201 116.002 54.0878C116.05 54.3007 116.077 54.5134 116.103 54.7262C116.113 54.7971 116.121 54.8685 116.13 54.9394C116.149 55.0537 116.169 55.1681 116.19 55.2823C116.242 55.568 116.293 55.8537 116.311 56.1394C116.35 56.8104 116.505 57.4555 116.75 58.0619C117.123 58.991 117.82 59.5974 118.813 59.8555C119.089 59.9207 119.361 59.9241 119.631 59.9275C119.788 59.9296 119.945 59.9315 120.103 59.9458C120.747 59.9974 121.34 59.8297 121.933 59.6103C123.081 59.1846 123.674 58.1523 123.726 57.0168C123.751 56.4362 123.764 55.8685 123.674 55.2878C123.623 55.0009 123.604 54.7057 123.587 54.4116C123.573 54.1901 123.56 53.9685 123.532 53.7524C123.461 53.2157 123.367 52.6902 123.272 52.1552L123.248 52.0234C123.107 51.146 122.81 50.3202 122.397 49.546C122.285 49.3288 122.155 49.1192 122.023 48.9088C121.912 48.7321 121.801 48.5544 121.701 48.3718C121.469 47.9203 121.302 47.4429 121.469 46.9267C121.559 46.6558 121.701 46.3977 121.856 46.1526C122.018 45.8979 122.188 45.6484 122.357 45.3995C122.566 45.0934 122.773 44.7882 122.965 44.4752C123.558 43.4946 123.803 42.3848 123.958 41.2623V41.0817C123.945 40.5655 123.919 40.0752 123.855 39.572C123.739 38.7591 123.494 38.0108 123.119 37.2882C122.733 36.5528 122.204 35.9463 121.598 35.3786C120.927 34.7593 120.141 34.3334 119.303 33.985C118.683 33.727 118.039 33.5593 117.369 33.4689C117.254 33.4546 117.14 33.4399 117.026 33.4251C116.318 33.3332 115.615 33.2421 114.893 33.2754C114.776 33.2803 114.659 33.2741 114.544 33.268C114.354 33.258 114.167 33.2482 113.99 33.2883C113.617 33.3816 113.24 33.395 112.862 33.4086C112.56 33.4194 112.256 33.4303 111.953 33.4818C111.569 33.5444 111.179 33.5513 110.786 33.5582C110.612 33.5611 110.438 33.5642 110.263 33.5722C110.238 33.5722 110.215 33.5754 110.193 33.5786C110.17 33.5819 110.148 33.5851 110.121 33.5851C109.912 33.6074 109.703 33.6329 109.496 33.6582C109.105 33.706 108.717 33.7533 108.329 33.7787C108.143 33.7941 107.958 33.8055 107.772 33.8168C107.494 33.8339 107.215 33.8508 106.937 33.8818C106.664 33.9062 106.391 33.9251 106.117 33.9439L106.116 33.944C105.666 33.9751 105.214 34.0064 104.757 34.0625C104.19 34.127 103.635 34.2302 103.12 34.4496C101.856 34.9786 101.263 35.9979 101.109 37.3011C101.053 37.8322 101.054 38.3728 101.056 38.9066V38.9077V38.9089C101.057 38.9968 101.057 39.0846 101.057 39.1721C101.057 39.4816 101.066 39.7877 101.076 40.094V40.0953C101.086 40.4014 101.095 40.7077 101.095 41.0172ZM46.4216 45.9976L46.4217 45.9866C46.4859 46.6571 46.4085 47.4046 46.241 48.1266C46.1121 48.7071 45.9315 49.262 45.7252 49.8168C45.2739 51.0297 44.5904 52.1007 43.6621 53.0038C42.9915 53.649 42.2178 54.1135 41.3539 54.4489C40.4255 54.7973 39.4713 54.9264 38.4913 54.8361C37.5886 54.7587 36.7633 54.4619 36.0412 53.8813C35.087 53.1199 34.5583 52.1136 34.236 50.9652C33.9652 49.9717 33.9007 48.9653 34.0039 47.9588C34.107 46.9911 34.3262 46.0491 34.6744 45.1331C35.1644 43.8814 35.8736 42.7847 36.9052 41.9073C37.8207 41.1331 38.8909 40.6815 40.0386 40.4234C40.6576 40.2815 41.3023 40.2686 41.9341 40.3202C42.811 40.3976 43.6621 40.6299 44.41 41.1331C44.8999 41.4686 45.3254 41.8944 45.6349 42.4234C45.9186 42.9008 46.125 43.404 46.2668 43.946C46.4336 44.6008 46.4344 45.2555 46.4217 45.9866L46.4216 45.9847V45.9976ZM40.8123 34.6558H41.7536C42.3854 34.6558 43.0173 34.7204 43.6491 34.8107C44.4357 34.9268 45.2094 35.0946 45.9573 35.3397C47.1823 35.7268 48.3171 36.3074 49.3486 37.0687C50.5221 37.9332 51.4376 39.0429 52.1082 40.3461C52.5981 41.3009 52.9463 42.2944 53.1655 43.3267C53.2566 43.7621 53.292 44.1976 53.328 44.6393C53.3379 44.7604 53.3478 44.8819 53.3589 45.0041C53.3976 45.3395 53.4234 45.675 53.3976 46.0105C53.3589 46.6814 53.3202 47.3523 53.2042 48.0104C52.9978 49.1846 52.6755 50.32 52.2757 51.4426C51.9403 52.3748 51.4734 53.2352 51.0015 54.1045L50.9476 54.2038C50.4962 55.0296 49.9289 55.778 49.3099 56.4876C48.7989 57.0658 48.2208 57.596 47.6499 58.1196C47.5583 58.2036 47.4667 58.2876 47.3758 58.3715C46.7826 58.9005 46.1121 59.3263 45.4286 59.7262C44.2423 60.4101 43.0044 60.9521 41.6634 61.2617C41.0186 61.4166 40.3738 61.5585 39.7291 61.6488C38.9168 61.752 38.1044 61.8552 37.292 61.7779C36.0541 61.6488 34.8163 61.494 33.6299 61.0811C32.3921 60.6682 31.2444 60.0875 30.1999 59.2876C29.5681 58.8102 28.962 58.3199 28.4591 57.7264C27.9691 57.1457 27.5307 56.5264 27.1181 55.8941C26.267 54.5651 25.8157 53.0942 25.4804 51.5716C25.3664 51.0581 25.3331 50.5245 25.3001 49.9974L25.3 49.9963C25.2957 49.9277 25.2915 49.8592 25.287 49.791C25.2698 49.5673 25.2756 49.3437 25.2813 49.1201C25.2841 49.0082 25.287 48.8964 25.287 48.7846C25.287 48.1523 25.3644 47.5201 25.4418 46.8878C25.5707 45.8685 25.8028 44.8879 26.151 43.9202C26.6023 42.6557 27.2213 41.4686 28.0336 40.3976C28.343 39.9848 28.6654 39.5718 29.0265 39.2235C29.6326 38.6558 30.2644 38.1138 30.922 37.6106C32.3792 36.501 34.0296 35.7913 35.7705 35.2752C36.3946 35.0935 37.0388 34.9818 37.6854 34.8696C37.7734 34.8543 37.8617 34.839 37.9496 34.8236C38.4139 34.7462 38.9038 34.6816 39.3681 34.6558C39.6867 34.6386 40.0109 34.6444 40.3333 34.6501C40.4937 34.653 40.6539 34.6558 40.8123 34.6558ZM12.5858 61.1844H13.3852V61.2102C13.5687 61.2037 13.7521 61.1997 13.9353 61.1957C14.4863 61.1836 15.0355 61.1715 15.5773 61.0941C16.2866 60.9909 16.9829 60.8102 17.6792 60.6038C19.0203 60.2037 20.1937 59.4941 21.2253 58.578C21.7798 58.0877 22.1924 57.4813 22.5921 56.8619C23.2498 55.8297 23.6237 54.6813 23.7398 53.4813C23.8171 52.6943 23.8429 51.8814 23.6624 51.0814C23.469 50.2685 23.1852 49.5072 22.734 48.8233C22.0763 47.8169 21.1995 47.004 20.2066 46.3331C19.2266 45.675 18.1692 45.1718 17.0731 44.7848C15.8094 44.3332 14.5329 43.9073 13.2434 43.5074L13.0346 43.4403C12.0199 43.1149 10.9996 42.7879 10.0584 42.2687C9.51687 41.9719 9.07837 41.5848 8.88498 40.9655C8.78179 40.6429 8.83342 40.3462 9.00108 40.101C9.24602 39.7268 9.58133 39.43 10.0327 39.301C10.3996 39.1961 10.7751 39.202 11.1453 39.208C11.2304 39.2093 11.3151 39.2107 11.3995 39.2107C12.0571 39.1978 12.6632 39.3914 13.2434 39.6494C14.0171 39.9978 14.6231 40.5654 15.2292 41.1332C16.2995 42.1526 17.576 42.6558 19.0332 42.6944H20.0389C20.6321 42.7073 21.1737 42.5268 21.6895 42.2558C22.4245 41.8558 22.7597 41.1849 22.8114 40.3977C22.85 39.8817 22.6824 39.3526 22.4502 38.8752C22.0763 38.1139 21.5605 37.4688 20.9932 36.8623C20.662 36.5072 20.2657 36.1956 19.874 35.8876L19.7682 35.8043C18.9042 35.1204 17.9242 34.6301 16.9184 34.1914C16.0931 33.843 15.2421 33.585 14.3782 33.3915C13.2692 33.1463 12.1474 32.9528 10.9997 32.9528C10.7983 32.9528 10.5954 32.9556 10.3921 32.9585C9.98374 32.9642 9.57318 32.9699 9.16865 32.9528C8.83478 32.9356 8.50669 32.9868 8.17663 33.0381C8.00952 33.0641 7.84192 33.0902 7.67288 33.1076C7.523 33.117 7.37992 33.1468 7.23376 33.1772C7.17873 33.1886 7.12326 33.2002 7.06682 33.2108C6.48656 33.3269 5.93209 33.5076 5.37761 33.7269C4.08813 34.2431 3.00497 35.0301 2.16681 36.1398C1.23839 37.3785 0.825759 38.8107 0.787074 40.3462C0.774179 40.8752 0.799969 41.3912 0.89023 41.9203C1.01918 42.6041 1.18681 43.2622 1.4705 43.8815C1.89602 44.8235 2.48918 45.6493 3.24998 46.3589C3.83024 46.9137 4.46208 47.3911 5.15839 47.7783C6.56393 48.5782 8.07262 49.1459 9.60707 49.6491C10.5742 49.9588 11.5413 50.2814 12.5084 50.6168C12.9468 50.7718 13.3723 50.9652 13.7979 51.1717C14.3265 51.4426 14.8037 51.791 15.1389 52.2942C15.3839 52.6684 15.4613 53.0685 15.3581 53.4942C15.2163 54.0362 14.8552 54.3846 14.3653 54.6168C13.9139 54.8232 13.4368 54.9522 12.9339 54.9522C12.2247 54.9652 11.5284 54.9007 10.8321 54.72C10.0713 54.5265 9.37495 54.1781 8.8076 53.662C8.27893 53.1717 7.80183 52.6297 7.33761 52.0749C6.95077 51.6104 6.48656 51.2492 5.97076 50.9781C5.05524 50.5007 4.06234 50.333 3.04366 50.3588C2.42471 50.3717 1.83155 50.5395 1.30286 50.8749C0.799969 51.1975 0.50339 51.662 0.426021 52.2298C0.335758 52.9136 0.374442 53.5845 0.645232 54.2426C1.09655 55.3394 1.74129 56.2942 2.52787 57.1716C2.99208 57.7006 3.54656 58.1264 4.11392 58.5264C5.1455 59.2748 6.28025 59.8038 7.47945 60.2296C8.3434 60.5392 9.22029 60.7586 10.1229 60.9263C10.9352 61.0683 11.7476 61.1973 12.5858 61.1844ZM85.1448 50.6557H85.6476C86.6141 50.6299 87.0014 49.7783 86.7432 49.1073C86.6532 48.8687 86.5564 48.6299 86.4596 48.3913C86.3627 48.1525 86.2668 47.9138 86.1759 47.6751C86.1648 47.6468 86.1538 47.6179 86.1419 47.5886C86.1011 47.4844 86.0587 47.3758 86.0086 47.2751C85.9771 47.2071 85.9466 47.1385 85.916 47.0698C85.6782 46.5388 85.4353 45.9961 84.9894 45.5849C84.6545 45.2752 84.2419 45.2623 83.9711 45.6365C83.7906 45.8816 83.6616 46.1784 83.5585 46.4622C83.4166 46.8494 83.3134 47.2365 83.2361 47.6364C83.2102 47.7619 83.177 47.8854 83.144 48.0082C83.0615 48.3146 82.9801 48.6172 83.0169 48.9396C83.0685 49.4945 83.249 49.9977 83.7648 50.2944C84.2161 50.5654 84.6932 50.6816 85.1448 50.6299V50.6557ZM95.5251 61.649C94.9705 61.7136 94.4287 61.649 93.9004 61.4684C93.1649 61.2233 92.5075 60.862 92.0557 60.2039C91.6947 59.6749 91.3338 59.1329 91.0119 58.5652C90.4309 57.5459 89.5672 57.0039 88.407 56.8749C87.8839 56.8105 87.3573 56.7857 86.8316 56.761C86.4094 56.7413 85.989 56.7215 85.5703 56.6814C85.1015 56.641 84.6387 56.6259 84.1743 56.6108C83.8968 56.6017 83.6189 56.5926 83.3393 56.5782C83.0039 56.5653 82.6687 56.5782 82.3334 56.6298C81.534 56.7846 81.0955 57.3652 80.7603 58.0491C80.5797 58.4233 80.4121 58.8103 80.2445 59.1975C79.8061 60.1523 79.0453 60.7071 78.0524 60.9522C77.2658 61.1458 76.4793 61.0813 75.6926 60.9007L75.5914 60.8738C75.4284 60.8309 75.2595 60.7863 75.0995 60.7329C74.0937 60.3846 73.4361 59.6878 73.0492 58.6942C72.8171 58.0749 72.83 57.4685 73.0106 56.8234C73.3115 55.7464 73.5916 54.659 73.8696 53.5798L73.9648 53.2105C74.0807 52.7616 74.1927 52.3106 74.3046 51.8601L74.3048 51.8591L74.3051 51.8583C74.4793 51.1569 74.6533 50.4563 74.8416 49.7654C75.2156 48.4235 75.6024 47.0816 76.015 45.7526C76.4148 44.4623 76.8145 43.1849 77.2658 41.9204C77.8074 40.3979 78.3489 38.8882 79.0839 37.4431C79.4321 36.7463 79.9092 36.1399 80.5797 35.7141C81.1213 35.3658 81.7145 35.1464 82.3592 35.0818C82.8364 35.0303 83.3134 35.0045 83.7906 34.9787C83.9167 34.971 84.0439 34.96 84.1717 34.9488C84.4748 34.9225 84.7806 34.8959 85.0803 34.9141C85.9185 34.9657 86.756 35.056 87.5297 35.4302C88.1879 35.7528 88.7034 36.2302 89.1035 36.8238C89.3608 37.2108 89.6063 37.6108 89.8254 38.0237C90.4445 39.2108 91.0501 40.3979 91.6438 41.5979C92.5457 43.3914 93.4358 45.1978 94.3123 47.0042C94.8414 48.1009 95.357 49.1977 95.847 50.3073C96.4271 51.6105 96.9817 52.9266 97.5363 54.2556C98.0136 55.404 98.4774 56.5524 98.9029 57.7007C99.0447 58.0878 99.1611 58.5136 99.1738 58.9265C99.1865 60.062 98.6837 60.8878 97.5618 61.3135C96.9044 61.5587 96.2207 61.6748 95.4988 61.5975L95.5251 61.649ZM60.8607 46.1802V46.1787V46.1773V46.1759V46.1745C60.8621 45.5771 60.8636 44.9802 60.8636 44.3847L60.8378 44.3461C60.8378 43.7998 60.8363 43.2536 60.8349 42.7074V42.7055C60.8321 41.6137 60.8292 40.5219 60.8378 39.43C60.8507 38.7462 60.7604 38.0623 60.6056 37.4043C60.3735 36.4752 59.8449 35.7656 58.8906 35.4688C58.3748 35.314 57.859 35.2237 57.3046 35.314C56.4793 35.4431 55.8217 35.8043 55.3317 36.4881C54.9605 37.0105 54.8815 37.6267 54.8037 38.2337L54.8034 38.2357C54.7948 38.3028 54.7862 38.3698 54.7772 38.4365C54.7171 38.848 54.7115 39.2595 54.7059 39.6709C54.7043 39.7885 54.7027 39.906 54.6998 40.0236C54.6934 40.2462 54.6885 40.4687 54.6837 40.6913C54.6693 41.359 54.6547 42.0268 54.5967 42.6945C54.5194 43.5717 54.5107 44.4545 54.5021 45.3355C54.4979 45.7764 54.4935 46.2168 54.4806 46.6557C54.4806 46.7564 54.4667 46.857 54.4528 46.9576C54.4435 47.0247 54.4343 47.0918 54.4291 47.1589C54.4222 47.2172 54.4145 47.2746 54.4067 47.3316C54.3854 47.4889 54.3646 47.643 54.3646 47.8041C54.3432 48.4873 54.3484 49.1707 54.3536 49.8541C54.3609 50.8222 54.3682 51.7906 54.3001 52.7588C54.2697 53.1778 54.2623 53.5967 54.2548 54.0157C54.2464 54.487 54.2379 54.9584 54.197 55.4296C54.1583 55.9071 54.184 56.3974 54.2614 56.8748C54.2715 56.9453 54.2805 57.0157 54.2896 57.0859C54.327 57.376 54.3639 57.6628 54.4677 57.9328C54.6869 58.5393 55.0222 59.0426 55.5896 59.3909C56.1698 59.7522 56.8146 59.907 57.4723 59.9328C57.8075 59.9457 58.146 59.9425 58.4845 59.9393C58.8229 59.936 59.1615 59.9328 59.4967 59.9457C60.0432 59.9688 60.5851 60.0058 61.1279 60.0427L61.1288 60.0428L61.1303 60.0429C61.496 60.0678 61.8621 60.0927 62.2304 60.1135C62.5439 60.1325 62.8573 60.127 63.1708 60.1214C63.7083 60.112 64.2461 60.1026 64.7836 60.2166C64.9646 60.2512 65.1628 60.2396 65.3591 60.228C65.4565 60.2223 65.5534 60.2166 65.6475 60.2166C65.6729 60.2166 65.6991 60.2159 65.7256 60.2151C65.807 60.2127 65.8921 60.2101 65.9699 60.2296C66.3567 60.3156 66.7514 60.322 67.1453 60.3283C67.4605 60.3334 67.775 60.3385 68.0846 60.3844C68.2914 60.4103 68.5039 60.4016 68.7146 60.393C68.8191 60.3887 68.9232 60.3844 69.0259 60.3844C69.9027 60.3587 70.6636 60.0747 71.2825 59.4296C71.6565 59.0296 71.9144 58.578 72.0175 58.0748C72.1078 57.6361 72.082 57.1716 71.9531 56.72C71.6951 55.8684 71.3599 55.0684 70.6894 54.449C69.993 53.791 69.1549 53.4813 68.2265 53.3652C68.0331 53.3394 67.8428 53.3233 67.6527 53.3071C67.4624 53.291 67.2722 53.2749 67.0789 53.2491C66.2019 53.1329 65.3251 53.0556 64.4354 53.0426C63.8294 53.0297 63.2233 52.991 62.6172 52.862C61.7662 52.6943 61.2246 52.191 61.044 51.3394C60.9409 50.8362 60.8636 50.3072 60.8636 49.7782C60.855 48.5828 60.8578 47.3818 60.8607 46.1826V46.1814V46.1802ZM55.7188 28.024C55.7318 28.5659 55.7962 28.7336 56.0928 29.2239C56.2605 29.5207 56.7118 29.7143 57.0341 29.624C57.4596 29.5079 57.8465 29.3143 58.0786 28.9143C58.1419 28.8086 58.2053 28.704 58.2683 28.5997L58.269 28.5986C58.4368 28.3213 58.6029 28.0471 58.762 27.7659C59.0586 27.2498 59.4583 26.8369 59.9999 26.6047C60.5157 26.3982 61.0573 26.295 61.6117 26.3079C62.1695 26.3165 62.7272 26.3137 63.2888 26.3108C63.571 26.3094 63.8544 26.3079 64.1391 26.3079C64.2809 26.3079 64.4228 26.3079 64.5646 26.2821C65.1578 26.1789 65.7639 26.1273 66.357 26.2175C67.0146 26.3079 67.6078 26.5788 68.0076 27.1466C68.3299 27.5982 68.6136 28.0627 68.8973 28.5401C69.1552 28.9788 69.5291 29.3014 69.9934 29.495C70.3286 29.6369 70.7025 29.6498 71.0379 29.495C71.4246 29.3143 71.6568 28.9917 71.7857 28.5659C71.9276 28.1014 71.876 27.6369 71.747 27.1853C71.5677 26.5212 71.3758 25.8632 71.1844 25.2072L71.1841 25.2061L71.1835 25.2041C71.1002 24.9182 71.0167 24.6321 70.9347 24.3467C70.8401 24.0069 70.7426 23.6686 70.6452 23.3302C70.4504 22.6535 70.2556 21.9768 70.0836 21.2886C69.6065 19.4048 69.1423 17.521 68.678 15.6243C68.5092 14.9217 68.3526 14.2131 68.1956 13.5025L68.1954 13.5014C68.1246 13.1814 68.0538 12.861 67.9818 12.5404C67.9044 12.2093 67.8285 11.8781 67.7525 11.5469L67.7523 11.5458C67.6004 10.8838 67.4487 10.2219 67.2854 9.55984C67.1049 8.82442 66.8857 8.10185 66.4215 7.4696C65.8412 6.68252 65.0418 6.37285 64.1133 6.50188C63.0431 6.65671 62.2952 7.31477 61.7665 8.23087C61.3539 8.92761 61.1218 9.70184 60.9026 10.476C60.5544 11.7017 60.2062 12.9275 59.8581 14.1404C59.7205 14.6221 59.5715 15.1038 59.4225 15.5856L59.4215 15.5888C59.3473 15.8285 59.2731 16.0683 59.2004 16.3082C59.02 16.9058 58.8408 17.5036 58.6618 18.1013C58.3036 19.2971 57.9454 20.4929 57.5757 21.6887C57.1502 23.0564 56.6989 24.4111 56.2475 25.766C56.2155 25.8684 56.1827 25.9708 56.15 26.0732L56.1492 26.0756C56.0501 26.3853 55.951 26.695 55.8736 27.0047C55.8016 27.305 55.7519 27.6165 55.7037 27.9184L55.693 27.9853L55.7188 28.024ZM71.2828 31.9207H70.4447C69.916 31.8949 69.4002 31.8303 68.8973 31.6626C68.2913 31.4691 67.8528 31.082 67.4918 30.5788C67.3673 30.3946 67.2496 30.2059 67.132 30.0175C66.9695 29.757 66.8073 29.4968 66.6278 29.2498C66.0217 28.4498 65.2093 28.024 64.2036 27.9337C64.1283 27.9265 64.0521 27.9174 63.9754 27.9081C63.7762 27.8842 63.5738 27.8599 63.3783 27.8691C62.2049 27.8949 61.1475 28.2175 60.3094 29.0691C60.0662 29.3124 59.8799 29.6127 59.6936 29.9128C59.6626 29.9629 59.6315 30.0129 59.6001 30.0626C59.5065 30.2007 59.4204 30.3426 59.3346 30.4839C59.196 30.7123 59.0583 30.9392 58.891 31.1465C58.7362 31.34 58.4912 31.4948 58.272 31.6239C57.6917 31.9723 57.0341 32.0626 56.3636 32.1013C56.1496 32.1099 55.9358 32.1071 55.7181 32.1042C55.6078 32.1028 55.4963 32.1013 55.3835 32.1013C54.3778 32.1013 53.6041 31.6884 53.0625 30.824C52.8046 30.3981 52.8175 29.9465 52.9722 29.5079C53.0883 29.1853 53.2817 28.8885 53.4751 28.5917C53.8878 27.9337 54.2618 27.2627 54.481 26.5144C54.5921 26.1423 54.7044 25.7703 54.8168 25.398L54.8191 25.3903L54.8218 25.3813L54.8231 25.3771C55.0868 24.5036 55.3511 23.6283 55.6028 22.7467C56.0541 21.1596 56.5054 19.5597 56.9309 17.9597C57.2147 16.9275 57.4725 15.8952 57.7304 14.8501C57.9626 13.9211 58.2075 12.9921 58.4525 12.063C58.5686 11.6114 58.6911 11.1599 58.8136 10.7082C58.9361 10.2566 59.0586 9.80504 59.1746 9.35346C59.2585 9.01152 59.3326 8.66636 59.4067 8.3212C59.4809 7.97604 59.555 7.63088 59.6389 7.28896L59.6458 7.26056C59.8112 6.58583 59.9793 5.89977 60.348 5.289C60.7865 4.55353 61.3925 4.01161 62.2178 3.72775C62.927 3.49549 63.662 3.36646 64.4099 3.37936H65.6349C66.5633 3.39227 67.3886 3.68903 68.0076 4.4116C68.4202 4.8761 68.7039 5.43094 68.8457 6.03737C69.0506 6.89323 69.2309 7.74909 69.4121 8.6092L69.4126 8.61158C69.4935 8.99555 69.5746 9.38029 69.6581 9.76631C69.7783 10.3337 69.9101 10.9012 70.0419 11.4686L70.042 11.4695C70.1079 11.7534 70.1738 12.0372 70.2383 12.3211C70.3931 13.005 70.5446 13.6888 70.6961 14.3727C70.8476 15.0564 70.9992 15.7406 71.1539 16.4243C71.4891 17.8694 71.8502 19.3145 72.2113 20.7597C72.5078 21.9338 72.8173 23.1079 73.1526 24.2692C73.5394 25.5853 73.952 26.8885 74.5065 28.153C74.6999 28.6046 74.8676 29.082 74.9062 29.5723C74.945 30.011 74.8289 30.4885 74.5323 30.8497C74.0681 31.4046 73.475 31.7142 72.7528 31.8432C72.4329 31.8993 72.1128 31.9057 71.8113 31.9117C71.6268 31.9153 71.4493 31.9189 71.2828 31.9336V31.9207ZM94.7769 21.0047C95.3706 20.2693 95.7443 19.4048 95.9897 18.4886L96.0025 18.4629C96.2216 17.65 96.3762 16.8242 96.3762 15.9855V15.4306C96.3634 14.9791 96.3371 14.4629 96.2734 13.9339C96.157 13.0565 95.9252 12.2436 95.4997 11.4823C95.0869 10.7598 94.5323 10.1663 93.784 9.77913C93.1522 9.44365 92.482 9.28882 91.7601 9.22436C91.1155 9.17272 90.5091 9.22436 89.9027 9.35337C89.3617 9.46947 88.8589 9.68885 88.4461 10.0888C87.9042 10.6178 87.646 11.2759 87.5042 11.9985C87.4617 12.1877 87.4414 12.3769 87.4218 12.5662C87.4116 12.6608 87.4014 12.7554 87.3887 12.8501C87.3658 13.0244 87.342 13.1971 87.3182 13.3694V13.371C87.2732 13.6954 87.229 14.0186 87.1951 14.3468C87.1696 14.6284 87.1551 14.9155 87.1407 15.2009C87.1339 15.3472 87.1263 15.4929 87.1178 15.6371C87.1178 15.6743 87.1084 15.7115 87.0991 15.7502C87.0897 15.7919 87.0787 15.8353 87.0787 15.8822C87.0549 16.0923 87.0286 16.3051 87.0014 16.5195V16.5212L87.0006 16.5224C86.97 16.7679 86.9386 17.0155 86.9114 17.2629C86.8859 17.5076 86.863 17.7522 86.8409 17.9968V17.9983L86.84 17.9998C86.818 18.2445 86.795 18.4891 86.7696 18.7338C86.7441 18.9854 86.7177 19.2338 86.6923 19.4821C86.6668 19.7306 86.6405 19.9789 86.615 20.2305C86.6082 20.2693 86.6014 20.308 86.5937 20.3467C86.5725 20.4628 86.5504 20.5789 86.5504 20.695C86.547 20.827 86.5385 20.9609 86.53 21.0952C86.5071 21.4465 86.485 21.8006 86.5504 22.1272C86.8086 23.366 87.7751 23.8046 88.9098 23.7917C89.2071 23.7917 89.5162 23.7402 89.7999 23.6756C90.3528 23.5488 90.8955 23.4015 91.4459 23.2519L91.6438 23.1982C92.443 22.9788 93.1394 22.5402 93.784 22.037C94.1586 21.7531 94.4805 21.3789 94.7769 21.0047ZM98.6549 13.7078C98.6719 13.8646 98.6888 14.0218 98.7101 14.1791L98.6719 14.2177C98.7356 14.6819 98.7874 15.1589 98.8392 15.6359V15.6371C98.8392 16.3815 98.6939 17.1036 98.5487 17.8242L98.5164 17.9855C98.4137 18.5402 98.2846 19.108 98.0909 19.6499C97.7427 20.6434 97.2399 21.5725 96.5571 22.3983C95.5124 23.6756 94.1713 24.5272 92.6366 25.0949C91.7338 25.4304 90.8055 25.6369 89.8517 25.7788C89.5876 25.8154 89.3285 25.8686 89.0686 25.922C88.8708 25.9627 88.6729 26.0034 88.4716 26.0369C88.1437 26.0957 87.81 26.1437 87.4787 26.1914C87.3012 26.2169 87.1254 26.2422 86.9505 26.2691C86.8986 26.2755 86.8434 26.2852 86.7891 26.2949C86.7339 26.3046 86.6795 26.3143 86.6277 26.3207C86.5844 26.3251 86.5419 26.3322 86.4986 26.3393C86.4128 26.3537 86.3271 26.368 86.2413 26.3595L86.1665 26.3477C85.6238 26.2619 85.0845 26.1765 84.6161 25.8433C84.4485 25.7272 84.2938 25.5853 84.1777 25.4304C83.8296 24.953 83.6104 24.424 83.6362 23.8175V23.2756C83.6146 22.7906 83.6831 22.3147 83.7513 21.8402C83.7647 21.7468 83.7782 21.6528 83.7909 21.5596C83.8167 21.3402 83.836 21.1209 83.8554 20.9015C83.8747 20.6821 83.894 20.4628 83.9198 20.2435C83.9456 20.0241 83.9779 19.8048 84.0101 19.5854C84.0423 19.366 84.0746 19.1467 84.1003 18.9274C84.1391 18.6177 84.1777 18.308 84.2035 17.9983C84.2191 17.8373 84.2305 17.6741 84.2419 17.5104C84.2589 17.2679 84.2759 17.0244 84.3067 16.7855C84.3324 16.5661 84.3647 16.3468 84.3969 16.1274C84.4292 15.908 84.4614 15.6887 84.4872 15.4694C84.5259 15.1855 84.5516 14.9145 84.5775 14.6436C84.6032 14.4113 84.6258 14.1791 84.6484 13.9468L84.6486 13.9454C84.6711 13.7136 84.6936 13.4818 84.7193 13.25L84.7391 13.096C84.7968 12.6464 84.8535 12.205 84.8999 11.7533C84.9191 11.5726 84.9384 11.3953 84.958 11.2179C84.9775 11.0405 84.9962 10.863 85.0157 10.6824C85.093 9.80495 85.3512 9.00498 85.8795 8.28241C86.2922 7.72759 86.8341 7.40502 87.4405 7.17276C87.9042 6.99212 88.3943 6.86308 88.9098 6.86308C89.14 6.85762 89.3719 6.84518 89.6054 6.83267C89.9222 6.81568 90.2415 6.79857 90.5609 6.79857H92.2884C93.0621 6.79857 93.7713 7.01792 94.4805 7.30179C95.1642 7.57275 95.7443 7.98564 96.2861 8.47596C96.7244 8.87597 97.0598 9.35337 97.3817 9.85659C97.9618 10.7468 98.2718 11.7404 98.5164 12.7597C98.5861 13.0712 98.62 13.3886 98.6549 13.7078ZM102.617 17.8048C102.579 17.9919 102.552 18.1822 102.527 18.3725C102.501 18.5628 102.475 18.7532 102.437 18.9403C102.218 19.9725 101.934 20.9789 101.469 21.9209C101.173 22.5402 100.838 23.1337 100.373 23.6498C100.224 23.824 100.08 24.0035 99.9348 24.185C99.8541 24.2858 99.7726 24.3872 99.6902 24.4885C99.5483 24.6562 99.4065 24.8111 99.2383 24.953C98.2846 25.7788 97.2526 26.5143 96.1052 27.0562C94.7387 27.7014 93.3203 28.1659 91.8238 28.3723C91.586 28.4057 91.3457 28.4444 91.1053 28.4832C90.6951 28.5493 90.2832 28.6155 89.8772 28.6562C89.4806 28.6967 89.0839 28.7117 88.6839 28.7269C88.4469 28.7359 88.2083 28.745 87.9688 28.7594C87.8524 28.7658 87.7335 28.7787 87.6138 28.7916C87.4949 28.8046 87.3751 28.8175 87.2596 28.8239C87.2078 28.8239 87.1534 28.8336 87.0982 28.8433C87.043 28.853 86.9887 28.8626 86.9369 28.8626C86.6082 28.882 86.2795 28.8981 85.9508 28.9142C85.6221 28.9303 85.2926 28.9465 84.9639 28.9658C84.7041 28.9827 84.444 29.0213 84.1804 29.0605C84.0388 29.0814 83.8962 29.1027 83.752 29.1207H83.7134C83.5558 29.132 83.3995 29.1454 83.2434 29.1588C82.8632 29.1914 82.4856 29.2239 82.1015 29.2239C81.7018 29.2239 81.2763 29.1981 80.8894 29.0949C80.206 28.94 79.6902 28.5401 79.4839 27.8433C79.3162 27.3014 79.2388 26.7466 79.3291 26.1788C79.3378 26.1009 79.3348 26.0173 79.3319 25.9356C79.3306 25.8954 79.3291 25.8557 79.3291 25.8175C79.3291 25.7734 79.3286 25.7291 79.3281 25.6846C79.325 25.4166 79.3217 25.143 79.4323 24.8885V24.824C79.4517 24.5853 79.4677 24.3466 79.4839 24.1078C79.5 23.8692 79.5161 23.6304 79.5354 23.3918C79.5742 22.953 79.6386 22.5144 79.7031 22.0757C79.7031 22.0449 79.7089 22.0111 79.7151 21.9759C79.7219 21.9373 79.7289 21.8967 79.7289 21.8563C79.7675 21.3144 79.8063 20.7854 79.9223 20.2564C79.957 20.0739 79.9684 19.8912 79.98 19.7048C79.9856 19.6145 79.9913 19.5232 79.9997 19.4306C80.019 19.2369 80.0352 19.0466 80.0513 18.8562C80.0673 18.6659 80.0835 18.4757 80.1029 18.2822C80.1221 18.1083 80.1446 17.9377 80.1671 17.7669L80.1673 17.7661L80.1674 17.7652C80.1899 17.5945 80.2125 17.4238 80.2318 17.25C80.2572 17.0595 80.2826 16.8658 80.308 16.6721L80.309 16.664L80.3092 16.6628C80.335 16.4661 80.3607 16.2693 80.3865 16.0758C80.4187 15.8049 80.4542 15.5307 80.4896 15.2565C80.5251 14.9823 80.5606 14.7081 80.5928 14.4371C80.6444 14.0243 80.6831 13.6113 80.7217 13.1856C80.7734 12.7984 80.8249 12.3984 80.8636 12.0114C80.8894 11.7856 80.912 11.5598 80.9346 11.334C80.9571 11.1081 80.9797 10.8824 81.0055 10.6566L81.1602 9.263C81.186 9.05016 81.2086 8.83724 81.2311 8.62432C81.2537 8.41145 81.2763 8.19855 81.302 7.98565C81.3923 7.18566 81.547 6.38569 82.0113 5.70183C82.4239 5.09539 82.9784 4.61798 83.7263 4.45024C84.125 4.35485 84.5294 4.29443 84.9359 4.23372C85.1338 4.2041 85.3325 4.17442 85.5313 4.14057L85.5321 4.14053C85.9831 4.07604 86.4341 4.01152 86.8723 3.94703H86.9114C87.1951 3.92767 87.4753 3.90509 87.7556 3.88252C88.0367 3.85993 88.317 3.83735 88.6007 3.818C89.1808 3.76641 89.7608 3.71476 90.3545 3.66316C90.47 3.66316 90.5991 3.66316 90.7155 3.63736C90.8182 3.62445 90.9185 3.61155 91.0178 3.59865C91.118 3.58575 91.2183 3.57284 91.321 3.55994C91.4246 3.54704 91.5402 3.53414 91.6438 3.53414H92.9075C94.0805 3.53414 95.2287 3.75348 96.3243 4.15347C97.2526 4.48895 98.1037 4.99216 98.8774 5.61151C99.9739 6.47601 100.748 7.57276 101.392 8.77269C101.947 9.81786 102.281 10.9404 102.501 12.1146C102.56 12.4428 102.608 12.7764 102.655 13.1084L102.656 13.1092C102.681 13.286 102.706 13.4624 102.733 13.6371C102.779 13.9678 102.784 14.2983 102.788 14.6099C102.792 14.821 102.795 15.0237 102.811 15.2113V15.908C102.811 16.5274 102.746 17.1468 102.617 17.7661V17.8048ZM104.913 13.1081C104.874 12.9145 104.854 12.7178 104.835 12.5211C104.816 12.3243 104.796 12.1275 104.757 11.9339C104.59 11.0566 104.371 10.205 104.074 9.36628C103.701 8.32113 103.223 7.3147 102.617 6.38569C101.998 5.44377 101.263 4.59218 100.36 3.86961C99.7029 3.34059 99.0065 2.87609 98.2718 2.47609C97.3172 1.95997 96.2725 1.6503 95.2151 1.41805C94.6223 1.27612 94.0159 1.1858 93.3976 1.21161C93.3348 1.21161 93.2711 1.20546 93.2074 1.19916C93.1394 1.19256 93.0706 1.1858 92.9976 1.1858C92.8303 1.17719 92.6621 1.16716 92.4948 1.15712C92.1593 1.13705 91.8238 1.11698 91.4892 1.10838H89.9027C89.8126 1.10838 89.709 1.10838 89.619 1.12128C89.258 1.14708 88.8971 1.1858 88.5489 1.22451C88.3773 1.24009 88.204 1.25149 88.0308 1.26291C87.7726 1.27987 87.5135 1.29689 87.2596 1.32773C87.0643 1.34772 86.8715 1.37738 86.6795 1.40698C86.3755 1.45381 86.0714 1.50047 85.764 1.50837C85.2917 1.52386 84.8197 1.56721 84.3478 1.61056C84.0331 1.63946 83.7185 1.66837 83.4039 1.68902C82.7721 1.72772 82.1789 1.88256 81.5858 2.10191C80.7862 2.38577 80.193 2.91479 79.7805 3.63736C79.4194 4.2567 79.342 4.95346 79.2776 5.63731C79.2256 6.15707 79.2072 6.67682 79.1885 7.20332C79.1839 7.33024 79.1794 7.45786 79.1744 7.58566V7.65017C79.0584 7.93659 79.0537 8.24157 79.0491 8.54559C79.046 8.74832 79.0429 8.9508 79.0068 9.1469C78.9466 9.45656 78.9322 9.76622 78.918 10.076C78.9108 10.2308 78.9036 10.3856 78.8907 10.5405C78.8907 10.5878 78.8762 10.6401 78.862 10.6913C78.8531 10.7237 78.8442 10.7556 78.8392 10.7856C78.8133 10.9146 78.7875 11.0437 78.7875 11.1727C78.7489 11.5598 78.7102 11.9597 78.6844 12.3598C78.6586 12.6436 78.6329 12.9275 78.5941 13.2114C78.5684 13.4307 78.5361 13.6501 78.5038 13.8694C78.4717 14.0886 78.4394 14.3083 78.4136 14.5275L78.3939 14.6815C78.3361 15.1311 78.2794 15.5724 78.2331 16.0241C78.2137 16.2047 78.1944 16.382 78.1751 16.5594C78.1557 16.7368 78.1363 16.9145 78.1171 17.0951C78.0783 17.5209 78.0268 17.9467 77.9752 18.3725C77.9552 18.566 77.9283 18.7561 77.9016 18.9444C77.8767 19.1203 77.852 19.2948 77.8333 19.4693C77.8076 19.7015 77.785 19.9338 77.7624 20.166C77.7399 20.3983 77.7173 20.6306 77.6915 20.8628C77.6657 21.1724 77.627 21.4821 77.5884 21.7918C77.5677 21.9621 77.5429 22.1324 77.5182 22.3028C77.4811 22.5583 77.4439 22.8137 77.4207 23.0692C77.3898 23.3634 77.3727 23.6575 77.3557 23.9517C77.3444 24.1478 77.3331 24.344 77.3175 24.5401C77.3175 24.5595 77.3143 24.5756 77.3111 24.5918C77.3079 24.6078 77.3047 24.624 77.3047 24.6433C77.2401 25.2111 77.1757 25.7788 77.1112 26.3595C77.1048 26.4307 77.0999 26.5028 77.0951 26.5751C77.0807 26.7905 77.066 27.0083 77.0081 27.2111C76.8276 27.9465 76.8017 28.682 76.8146 29.4303C76.8146 29.5207 76.8146 29.5981 76.8534 29.6755C77.0983 30.54 77.6528 31.1206 78.5038 31.3916C79.1618 31.607 79.8531 31.556 80.5261 31.5063L80.6831 31.4948C80.8824 31.4773 81.0817 31.4463 81.2809 31.4154C81.5201 31.3782 81.7593 31.3411 81.9984 31.3271C82.454 31.2927 82.9096 31.2812 83.3652 31.2698C83.593 31.264 83.8208 31.2582 84.0486 31.2496C84.3452 31.2496 84.6547 31.2496 84.9512 31.2238C85.4582 31.1889 85.9703 31.1421 86.4808 31.0955C86.7237 31.0732 86.9666 31.0512 87.2078 31.0304C87.4337 31.011 87.6588 30.9884 87.8847 30.9658C88.1106 30.9432 88.3357 30.9206 88.5616 30.9013C88.6414 30.8924 88.7221 30.8851 88.8037 30.8778C88.9599 30.8637 89.1188 30.8493 89.2708 30.8239L90.47 30.6303C90.7197 30.5959 90.9703 30.5672 91.2208 30.5386C91.7228 30.4812 92.2239 30.4239 92.7139 30.3207C93.4791 30.1528 94.2274 29.9425 94.979 29.731C95.1523 29.6822 95.3256 29.6335 95.4988 29.5852C96.5435 29.2884 97.5108 28.7981 98.4519 28.2562C99.0787 27.8867 99.6469 27.4491 100.216 27.0111C100.303 26.9443 100.39 26.8775 100.477 26.811C101.096 26.3207 101.624 25.7401 102.089 25.1207C102.952 23.9724 103.649 22.7208 104.126 21.366C104.59 20.0757 104.861 18.7338 105.015 17.379C105.071 16.9174 105.08 16.4557 105.09 15.942C105.094 15.7379 105.099 15.5254 105.105 15.3016C105.067 15.0334 105.06 14.7397 105.051 14.4332C105.039 14.0172 105.027 13.5777 104.938 13.1468L104.913 13.1081ZM64.2552 20.295V20.3982H64.2681C64.281 20.7724 64.1391 21.0433 63.8813 21.2498C63.6879 21.4046 63.4815 21.4046 63.2881 21.2498C62.9271 20.966 62.811 20.5272 62.9786 20.1144C63.0947 19.8047 63.4041 19.6111 63.675 19.637C63.9328 19.6628 64.2294 19.9983 64.2552 20.295ZM62.6149 24.5868C62.7382 24.5956 62.8599 24.6043 62.9786 24.6175L63.0044 24.5917C63.1636 24.5818 63.3189 24.566 63.4726 24.5505C63.7174 24.5257 63.958 24.5013 64.2037 24.5013C64.6292 24.5013 65.0289 24.3981 65.4286 24.2562C65.6994 24.1529 65.9702 24.0368 66.1895 23.8562C66.9631 23.224 67.1566 22.3594 67.0018 21.4176C66.9617 21.1604 66.8865 20.9133 66.8106 20.6637C66.7646 20.5125 66.7183 20.3604 66.6794 20.2046C66.6504 20.0821 66.6206 19.9595 66.5908 19.837C66.5013 19.4692 66.4119 19.1015 66.3442 18.7337C66.3156 18.5679 66.3073 18.4021 66.299 18.2374C66.2887 18.0304 66.2784 17.8252 66.2281 17.6241C66.1449 17.2907 66.1207 16.952 66.0967 16.6149C66.0835 16.43 66.0704 16.2456 66.0476 16.0628C66.0089 15.7274 65.9702 15.4047 65.9186 15.0693C65.9006 14.9537 65.8815 14.8391 65.8626 14.7253C65.8139 14.4324 65.766 14.1444 65.7381 13.8564C65.6737 13.25 65.506 12.6694 65.1965 12.1532C64.9258 11.6887 64.4873 11.4307 63.9328 11.4823C63.5202 11.521 63.1592 11.7016 62.9142 12.0371C62.6176 12.4371 62.3984 12.8758 62.2824 13.3661C62.2436 13.5339 62.2035 13.7016 62.1634 13.8693C62.0832 14.2048 62.0029 14.5403 61.9341 14.8758C61.8052 15.4822 61.6763 16.0886 61.5731 16.708C61.525 17.0019 61.4881 17.2979 61.4511 17.5935C61.3989 18.0117 61.3467 18.4287 61.2636 18.837C61.1476 19.3918 60.967 19.9595 60.7607 20.4886C60.7384 20.5451 60.7157 20.6018 60.6931 20.6584C60.4937 21.1572 60.2926 21.6601 60.2578 22.2046C60.232 22.6563 60.2449 23.1337 60.5158 23.5207C60.851 24.011 61.3023 24.3852 61.8955 24.5013C62.1334 24.5524 62.3769 24.5698 62.6149 24.5868Z" fill="white"/>
</g>
<defs>
<clipPath id="clip0_129_268">
<rect width="124" height="62" fill="white"/>
</clipPath>
</defs>
</svg>
